# This file uses feet as units for non-parametric coordinates.

mtllib ground.mtl
g default
v -5249.896353 23.235464 5011.756752
v 4728.827280 23.235464 5011.756752
v -5249.896353 23.235464 -6504.400811
v 4728.827280 23.235464 -6504.400811
vt 0.998008 0.001992
vt 0.998008 0.998008
vt 0.001992 0.998008
vt 0.001992 0.001992
vn 0.000000 1.000000 0.000000
vn 0.000000 1.000000 0.000000
vn 0.000000 1.000000 0.000000
vn 0.000000 1.000000 0.000000
s off
g ground gasStation
usemtl lambert3SG
f 4/1/1 3/2/2 1/3/3 2/4/4
