# This file uses meters as units for non-parametric coordinates.

mtllib Twig3.mtl
g default
v -531.334961 -0.934921 -803.424133
v -526.550049 -0.934921 -803.424133
v -531.334961 88.048492 -812.385498
v -526.550049 88.048492 -812.385498
v -531.334961 88.048492 -817.170532
v -526.550049 88.048492 -817.170532
v -531.334961 -0.934921 -808.208984
v -526.550049 -0.934921 -808.208984
v -533.088806 54.869419 -803.424133
v -533.088806 54.869419 -808.208984
v -528.303894 54.869419 -808.208984
v -528.303894 54.869419 -803.424133
v -533.088806 60.650288 -805.872253
v -533.088806 60.650288 -810.657166
v -528.303894 60.650288 -810.657166
v -528.303894 60.650288 -805.872253
v -528.303894 60.809025 -798.137573
v -533.088806 60.809025 -798.137573
v -528.303894 65.119720 -800.655090
v -533.088806 65.119720 -800.655090
v -527.566345 26.967249 -805.214600
v -532.351318 26.967249 -805.214600
v -532.351318 26.967249 -809.999451
v -527.566345 26.967249 -809.999451
v -529.348267 62.354908 -797.590942
v -532.044312 62.354908 -797.590942
v -529.348267 65.301041 -798.776184
v -532.044312 65.301041 -798.776184
vt 0.943754 0.454358
vt 0.943758 0.481310
vt 0.807025 0.491412
vt 0.807021 0.464460
vt 0.670289 0.481344
vt 0.670286 0.454391
vt 0.641961 0.495137
vt 0.641958 0.468184
vt 0.507701 0.531842
vt 0.507698 0.504889
vt 0.620052 0.438800
vt 0.641175 0.424616
vt 0.619162 0.428216
vt 0.633599 0.421538
vt 0.044679 0.481426
vt 0.044675 0.454473
vt 0.181411 0.464540
vt 0.181415 0.491493
vt 0.318144 0.454436
vt 0.318148 0.481389
vt 0.346475 0.468222
vt 0.346479 0.495175
vt 0.347247 0.424654
vt 0.368374 0.438832
vt 0.480745 0.504892
vt 0.480749 0.531845
vt 0.354823 0.421574
vt 0.369261 0.428248
vt 0.480802 0.967908
vt 0.507754 0.967905
vt 0.507757 0.994857
vt 0.480805 0.994860
vt 0.497805 0.341239
vt 0.470852 0.341240
vt 0.476735 0.330656
vt 0.491922 0.330656
vt 0.497806 0.370626
vt 0.470854 0.370628
vt 0.480731 0.006067
vt 0.507684 0.006067
vt 0.501959 0.142801
vt 0.475006 0.142801
vt 0.497805 0.279536
vt 0.470852 0.279536
vt 0.497805 0.308643
vt 0.470852 0.308643
vt 0.491922 0.316218
vt 0.476735 0.316218
vt 0.475060 0.831174
vt 0.502013 0.831171
vt 0.470889 0.694440
vt 0.497842 0.694437
vt 0.470886 0.666111
vt 0.497839 0.666108
vn -0.680532 -0.099873 0.725880
vn 0.699612 -0.053872 0.712489
vn 0.719789 0.023507 0.693795
vn -0.721982 -0.023579 0.691510
vn -0.706102 0.304565 0.639266
vn 0.749143 0.214937 0.626568
vn 0.661155 -0.083984 -0.745534
vn -0.633683 -0.013372 -0.773477
vn -0.693228 -0.020861 -0.720417
vn 0.690943 0.020793 -0.722610
vn 0.722333 -0.136216 -0.677997
vn -0.700780 -0.185202 -0.688918
vn -0.737394 -0.029568 -0.674816
vn -0.733602 -0.153805 0.661946
vn -0.846817 0.271494 0.457376
vn -0.737186 -0.137877 -0.661474
vn 0.704239 -0.221177 -0.674631
vn 0.728280 0.002808 -0.685274
vn 0.727300 -0.125845 0.674683
vn 0.839216 0.217765 0.498292
vn -0.372077 0.137750 0.917924
vn 0.372091 0.137736 0.917920
vn 0.349392 0.739966 0.574783
vn -0.349381 0.739966 0.574790
vn 0.766467 -0.380482 0.517458
vn -0.766467 -0.380473 0.517463
vn 0.734123 0.580266 -0.352640
vn -0.734122 0.580273 -0.352631
s 1
g pCube20
usemtl initialShadingGroup
f 1/39/1 2/40/2 21/41/3 22/42/4
f 3/25/5 4/10/6 6/9/7 5/26/8
f 23/49/9 24/50/10 8/30/11 7/29/12
f 7/29/12 8/30/11 2/31/2 1/32/1
f 2/1/2 8/2/11 24/3/10 21/4/3
f 7/15/12 1/16/1 22/17/4 23/18/9
f 10/20/13 9/19/14 13/21/15 14/22/16
f 14/53/16 15/54/17 11/52/18 10/51/13
f 12/6/19 11/5/18 15/7/17 16/8/20
f 26/48/21 25/47/22 27/36/23 28/35/24
f 14/22/16 13/21/15 3/25/5 5/26/8
f 5/26/8 6/9/7 15/54/17 14/53/16
f 16/8/20 15/7/17 6/9/7 4/10/6
f 13/38/15 16/37/20 4/10/6 3/25/5
f 9/44/14 12/43/19 17/45/25 18/46/26
f 12/6/19 16/8/20 19/11/27 17/12/25
f 16/37/20 13/38/15 20/34/28 19/33/27
f 13/21/15 9/19/14 18/23/26 20/24/28
f 22/42/4 21/41/3 12/43/19 9/44/14
f 23/18/9 22/17/4 9/19/14 10/20/13
f 10/51/13 11/52/18 24/50/10 23/49/9
f 21/4/3 24/3/10 11/5/18 12/6/19
f 18/46/26 17/45/25 25/47/22 26/48/21
f 17/12/25 19/11/27 27/13/23 25/14/22
f 19/33/27 20/34/28 28/35/24 27/36/23
f 20/24/28 18/23/26 26/27/21 28/28/24
