# This file uses centimeters as units for non-parametric coordinates.

mtllib exterior_low.mtl
g default
v 4289.028809 0.000000 1674.949707
v 4310.172363 0.000000 1674.949707
v 4289.028809 359.796265 1674.949707
v 4310.172363 359.796265 1674.949707
v 4289.028809 359.796265 -1674.950073
v 4310.172363 359.796265 -1674.950073
v 4289.028809 0.000000 -1674.950073
v 4310.172363 0.000000 -1674.950073
v 6683.950195 -0.000000 1674.949951
v 3334.050049 0.000000 1674.949829
v 3334.050049 0.000000 -1674.949951
v 6683.950195 0.000000 -1674.949951
v 1674.949951 -0.000000 1674.949951
v -1674.949951 0.000000 -1674.949951
v 1674.949951 0.000000 -1674.949951
v -1674.949951 0.000000 1674.949951
v 2063.212646 -1.399997 -928.960022
v 2063.212646 -1.399997 -93.679993
v 1645.572754 -1.399997 -93.679993
v 1645.572754 -1.399997 -928.960022
v -10.571656 0.000000 1674.949707
v 10.571656 0.000000 1674.949707
v -10.571656 359.796265 1674.949707
v 10.571656 359.796265 1674.949707
v -10.571656 359.796265 -1674.950073
v 10.571656 359.796265 -1674.950073
v -10.571656 0.000000 -1674.950073
v 10.571656 0.000000 -1674.950073
vt 0.020418 0.498120
vt 0.020418 0.001992
vt 0.073704 0.001992
vt 0.073704 0.498120
vt 0.080998 0.498120
vt 0.080998 0.001992
vt 0.134285 0.001992
vt 0.134285 0.498120
vt 0.367034 0.998008
vt 0.367034 0.501880
vt 0.420321 0.501880
vt 0.420321 0.998008
vt 0.307968 0.998008
vt 0.307968 0.501880
vt 0.361255 0.501880
vt 0.361255 0.998008
vt 0.001876 0.001992
vt 0.005008 0.001992
vt 0.005008 0.498120
vt 0.001876 0.498120
vt 0.011239 0.001992
vt 0.014370 0.001992
vt 0.014370 0.498120
vt 0.011239 0.498120
vt 0.637706 0.498120
vt 0.141578 0.498120
vt 0.141578 0.001992
vt 0.637706 0.001992
vt 0.940049 0.998008
vt 0.443920 0.998008
vt 0.443920 0.501880
vt 0.940049 0.501880
vt 0.302189 0.625587
vt 0.240336 0.501880
vt 0.302189 0.501880
vt 0.240336 0.625587
vt 0.435010 0.501880
vt 0.438141 0.501880
vt 0.438141 0.998008
vt 0.435010 0.998008
vt 0.426100 0.501880
vt 0.429231 0.501880
vt 0.429231 0.998008
vt 0.426100 0.998008
vt 0.231425 0.501880
vt 0.234557 0.501880
vt 0.234557 0.555167
vt 0.231425 0.555167
vt 0.222515 0.501880
vt 0.225646 0.501880
vt 0.225646 0.555166
vt 0.222515 0.555166
vt 0.213605 0.501880
vt 0.216736 0.501880
vt 0.216736 0.555167
vt 0.213605 0.555167
vt 0.204694 0.501880
vt 0.207826 0.501880
vt 0.207826 0.555166
vt 0.204694 0.555166
vn 0.000000 0.000000 1.000000
vn 0.000000 0.000000 1.000000
vn 0.000000 0.000000 1.000000
vn 0.000000 0.000000 1.000000
vn 0.000000 1.000000 0.000000
vn 0.000000 1.000000 0.000000
vn 0.000000 1.000000 0.000000
vn 0.000000 1.000000 0.000000
vn 0.000000 0.000000 -1.000000
vn 0.000000 0.000000 -1.000000
vn 0.000000 0.000000 -1.000000
vn 0.000000 0.000000 -1.000000
vn 0.000000 -1.000000 0.000000
vn 0.000000 -1.000000 0.000000
vn 0.000000 -1.000000 0.000000
vn 0.000000 -1.000000 0.000000
vn 1.000000 0.000000 0.000000
vn 1.000000 0.000000 0.000000
vn 1.000000 0.000000 0.000000
vn 1.000000 0.000000 0.000000
vn -1.000000 0.000000 0.000000
vn -1.000000 0.000000 0.000000
vn -1.000000 0.000000 0.000000
vn -1.000000 0.000000 0.000000
vn 0.000000 1.000000 0.000000
vn 0.000000 1.000000 0.000000
vn 0.000000 1.000000 0.000000
vn 0.000000 1.000000 0.000000
vn 0.000000 1.000000 0.000000
vn 0.000000 1.000000 0.000000
vn 0.000000 1.000000 0.000000
vn 0.000000 1.000000 0.000000
vn 0.000000 1.000000 -0.000000
vn 0.000000 1.000000 -0.000000
vn 0.000000 1.000000 -0.000000
vn 0.000000 1.000000 -0.000000
vn 0.000000 1.000000 -0.000000
vn 0.000000 1.000000 -0.000000
vn 0.000000 0.000000 1.000000
vn 0.000000 0.000000 1.000000
vn 0.000000 0.000000 1.000000
vn 0.000000 0.000000 1.000000
vn 0.000000 1.000000 0.000000
vn 0.000000 1.000000 0.000000
vn 0.000000 1.000000 0.000000
vn 0.000000 1.000000 0.000000
vn 0.000000 0.000000 -1.000000
vn 0.000000 0.000000 -1.000000
vn 0.000000 0.000000 -1.000000
vn 0.000000 0.000000 -1.000000
vn 0.000000 -1.000000 0.000000
vn 0.000000 -1.000000 0.000000
vn 0.000000 -1.000000 0.000000
vn 0.000000 -1.000000 0.000000
vn 1.000000 0.000000 0.000000
vn 1.000000 0.000000 0.000000
vn 1.000000 0.000000 0.000000
vn 1.000000 0.000000 0.000000
vn -1.000000 0.000000 0.000000
vn -1.000000 0.000000 0.000000
vn -1.000000 0.000000 0.000000
vn -1.000000 0.000000 0.000000
s off
g pCube3
usemtl initialShadingGroup
f 1/45/1 2/46/2 4/47/3 3/48/4
f 3/17/5 4/18/6 6/19/7 5/20/8
f 5/49/9 6/50/10 8/51/11 7/52/12
f 7/21/13 8/22/14 2/23/15 1/24/16
f 2/1/17 8/2/18 6/3/19 4/4/20
f 7/5/21 1/6/22 3/7/23 5/8/24
f 12/25/25 11/26/26 10/27/27 9/28/28
f 15/29/29 14/30/30 16/31/31 13/32/32
f 17/33/33 19/34/34 18/35/35
f 17/33/36 20/36/37 19/34/38
f 21/53/39 22/54/40 24/55/41 23/56/42
f 23/37/43 24/38/44 26/39/45 25/40/46
f 25/57/47 26/58/48 28/59/49 27/60/50
f 27/41/51 28/42/52 22/43/53 21/44/54
f 22/9/55 28/10/56 26/11/57 24/12/58
f 27/13/59 21/14/60 23/15/61 25/16/62
