# This file uses centimeters as units for non-parametric coordinates.

mtllib paint_can_low.mtl
g default
v 1.562027 13.438397 -0.901837
v 0.901837 13.438397 -1.562027
v 0.000000 13.438397 -1.803673
v -0.901837 13.438397 -1.562027
v -1.562027 13.438397 -0.901837
v -1.803673 13.438397 0.000000
v -1.562027 13.438397 0.901837
v -0.901837 13.438397 1.562027
v 0.000000 13.438397 1.803673
v 0.901837 13.438397 1.562027
v 1.562027 13.438397 0.901837
v 1.803673 13.438397 0.000000
v 1.443124 13.941316 -0.833188
v 0.833188 13.941316 -1.443124
v 0.000000 13.941316 -1.666377
v -0.833188 13.941316 -1.443124
v -1.443124 13.941316 -0.833188
v -1.666377 13.941316 0.000000
v -1.443124 13.941316 0.833188
v -0.833188 13.941316 1.443124
v 0.000000 13.941316 1.666377
v 0.833188 13.941316 1.443124
v 1.443124 13.941316 0.833188
v 1.666377 13.941316 0.000000
v 1.104520 14.367668 -0.637695
v 0.637695 14.367668 -1.104520
v 0.000000 14.367668 -1.275390
v -0.637695 14.367668 -1.104520
v -1.104520 14.367668 -0.637695
v -1.275390 14.367668 0.000000
v -1.104520 14.367668 0.637695
v -0.637695 14.367668 1.104520
v 0.000000 14.367668 1.275390
v 0.637695 14.367668 1.104520
v 1.104520 14.367668 0.637695
v 1.275390 14.367668 0.000000
v 0.597762 14.652549 -0.345118
v 0.345118 14.652549 -0.597762
v 0.000000 14.652549 -0.690236
v -0.345118 14.652549 -0.597762
v -0.597762 14.652549 -0.345118
v -0.690236 14.652549 0.000000
v -0.597762 14.652549 0.345118
v -0.345118 14.652549 0.597762
v 0.000000 14.652549 0.690236
v 0.345118 14.652549 0.597762
v 0.597762 14.652549 0.345118
v 0.690236 14.652549 0.000000
v 1.690343 4.343007 -0.975920
v 0.975920 4.343007 -1.690343
v 0.000000 4.343007 -1.951839
v -0.975920 4.343007 -1.690343
v -1.690343 4.343007 -0.975920
v -1.951839 4.343007 0.000000
v -1.690343 4.343007 0.975920
v -0.975920 4.343007 1.690343
v 0.000000 4.343007 1.951839
v 0.975920 4.343007 1.690343
v 1.690343 4.343007 0.975920
v 1.951839 4.343007 0.000000
v 1.690343 13.438397 -0.975920
v 0.975920 13.438397 -1.690343
v 0.000000 13.438397 -1.951839
v -0.975920 13.438397 -1.690343
v -1.690343 13.438397 -0.975920
v -1.951839 13.438397 0.000000
v -1.690343 13.438397 0.975920
v -0.975920 13.438397 1.690343
v 0.000000 13.438397 1.951839
v 0.975920 13.438397 1.690343
v 1.690343 13.438397 0.975920
v 1.951839 13.438397 0.000000
v 0.000000 4.343007 0.000000
v 0.597762 14.537072 -0.345118
v 0.345118 14.537072 -0.597762
v -0.000000 14.637109 -0.000000
v 0.000000 14.537072 -0.690236
v -0.345118 14.537072 -0.597762
v -0.597762 14.537072 -0.345118
v -0.690236 14.537072 0.000000
v -0.597762 14.537072 0.345118
v -0.345118 14.537072 0.597762
v 0.000000 14.537072 0.690236
v 0.345118 14.537072 0.597762
v 0.597762 14.537072 0.345118
v 0.690236 14.537072 0.000000
v 0.208389 14.595825 -0.208389
v 0.000000 14.595825 -0.294706
v -0.208389 14.595825 -0.208389
v -0.294706 14.595825 0.000000
v -0.208389 14.595825 0.208389
v 0.000000 14.595825 0.294706
v 0.208389 14.595825 0.208389
v 0.294706 14.595825 0.000000
v 0.171740 15.151619 -0.171740
v 0.000000 15.151619 -0.242878
v -0.171740 15.151619 -0.171740
v -0.242878 15.151619 0.000000
v -0.171740 15.151619 0.171740
v 0.000000 15.151619 0.242878
v 0.171740 15.151619 0.171740
v 0.242878 15.151619 0.000000
v 0.000000 14.595825 0.000000
v 0.000000 15.151619 0.000000
vt 0.084453 0.845767
vt 0.084453 0.780248
vt 0.120990 0.780248
vt 0.120990 0.840779
vt 0.084453 0.714728
vt 0.120990 0.719716
vt 0.151965 0.780248
vt 0.151965 0.826577
vt 0.084453 0.893730
vt 0.120990 0.885092
vt 0.084453 0.666765
vt 0.120990 0.675403
vt 0.151965 0.733918
vt 0.151965 0.860492
vt 0.151965 0.700003
vt 0.158091 0.845767
vt 0.158091 0.780248
vt 0.194629 0.780248
vt 0.194629 0.840779
vt 0.158091 0.714728
vt 0.194629 0.719716
vt 0.225604 0.780248
vt 0.225604 0.826577
vt 0.158091 0.893730
vt 0.194629 0.885092
vt 0.158091 0.666765
vt 0.194629 0.675403
vt 0.225604 0.733918
vt 0.225604 0.860492
vt 0.225604 0.700003
vt 0.456914 0.001992
vt 0.527816 0.001992
vt 0.527816 0.662780
vt 0.456914 0.662780
vt 0.598717 0.001992
vt 0.598717 0.662780
vt 0.405011 0.001992
vt 0.405011 0.662780
vt 0.650620 0.001992
vt 0.650620 0.662780
vt 0.053893 0.001992
vt 0.124794 0.001992
vt 0.124794 0.662780
vt 0.053893 0.662780
vt 0.195695 0.001992
vt 0.195695 0.662780
vt 0.001989 0.001992
vt 0.001989 0.662780
vt 0.247599 0.001992
vt 0.247599 0.662780
vt 0.175985 0.916070
vt 0.175985 0.941144
vt 0.167596 0.941144
vt 0.167596 0.916070
vt 0.175985 0.966217
vt 0.167596 0.966217
vt 0.175985 0.897716
vt 0.167596 0.897716
vt 0.175985 0.984571
vt 0.167596 0.984571
vt 0.160417 0.916070
vt 0.160417 0.941144
vt 0.152028 0.941144
vt 0.152028 0.916070
vt 0.160417 0.966217
vt 0.152028 0.966217
vt 0.160417 0.897716
vt 0.152028 0.897716
vt 0.160417 0.984571
vt 0.152028 0.984571
vt 0.301872 0.912878
vt 0.317011 0.912878
vt 0.317011 0.953257
vt 0.304534 0.953257
vt 0.332151 0.912878
vt 0.329488 0.953257
vt 0.375821 0.912878
vt 0.390960 0.912878
vt 0.390960 0.953257
vt 0.378483 0.953257
vt 0.406100 0.912878
vt 0.403437 0.953257
vt 0.404632 0.834158
vt 0.370717 0.868073
vt 0.349461 0.831257
vt 0.367816 0.812902
vt 0.324388 0.880487
vt 0.324388 0.837975
vt 0.417046 0.787829
vt 0.374534 0.787829
vt 0.384920 0.892673
vt 0.324388 0.908893
vt 0.278059 0.868073
vt 0.299315 0.831257
vt 0.404632 0.741500
vt 0.367816 0.762756
vt 0.263856 0.892673
vt 0.244144 0.834158
vt 0.280960 0.812902
vt 0.370717 0.707585
vt 0.349461 0.744401
vt 0.231730 0.787829
vt 0.274242 0.787829
vt 0.324388 0.695171
vt 0.324388 0.737683
vt 0.244144 0.741500
vt 0.280960 0.762756
vt 0.324388 0.666765
vt 0.384920 0.682985
vt 0.278059 0.707585
vt 0.299315 0.744401
vt 0.263856 0.682985
vt 0.138570 0.972935
vt 0.120216 0.991290
vt 0.095142 0.947862
vt 0.095142 0.998008
vt 0.145289 0.947862
vt 0.070069 0.991290
vt 0.138570 0.922789
vt 0.051715 0.972935
vt 0.120216 0.904434
vt 0.044996 0.947862
vt 0.095142 0.897716
vt 0.051715 0.922789
vt 0.070069 0.904434
vt 0.925608 0.685763
vt 0.977511 0.737666
vt 0.854706 0.808568
vt 0.996509 0.808568
vt 0.854706 0.666765
vt 0.977511 0.879469
vt 0.783805 0.685763
vt 0.925608 0.931373
vt 0.731902 0.737666
vt 0.854706 0.950371
vt 0.712904 0.808568
vt 0.783805 0.931373
vt 0.731902 0.879469
vt 0.635876 0.931373
vt 0.630494 0.922050
vt 0.678457 0.874087
vt 0.687780 0.879469
vt 0.564975 0.950371
vt 0.564975 0.939606
vt 0.696013 0.808568
vt 0.706778 0.808568
vt 0.494074 0.931373
vt 0.499456 0.922050
vt 0.678457 0.743049
vt 0.687780 0.737667
vt 0.442170 0.879469
vt 0.451492 0.874087
vt 0.630494 0.695085
vt 0.635876 0.685763
vt 0.423172 0.808568
vt 0.433937 0.808568
vt 0.564975 0.677530
vt 0.564975 0.666765
vt 0.442170 0.737667
vt 0.451492 0.743049
vt 0.499456 0.695085
vt 0.494074 0.685763
vt 0.235711 0.912878
vt 0.250851 0.919149
vt 0.235711 0.934289
vt 0.257122 0.934289
vt 0.220571 0.919149
vt 0.250851 0.949428
vt 0.214300 0.934289
vt 0.235711 0.955699
vt 0.220571 0.949428
vt 0.442917 0.959524
vt 0.448085 0.972001
vt 0.430440 0.972001
vt 0.442917 0.984479
vt 0.430440 0.954356
vt 0.430440 0.989647
vt 0.417963 0.959524
vt 0.417963 0.984479
vt 0.412795 0.972001
vt 0.078327 0.666765
vt 0.078327 0.732284
vt 0.041790 0.732284
vt 0.041790 0.671752
vt 0.078327 0.797804
vt 0.041790 0.792816
vt 0.001989 0.932827
vt 0.001989 0.867308
vt 0.038526 0.867308
vt 0.038526 0.927840
vt 0.001989 0.801789
vt 0.038526 0.806776
vt 0.396970 0.662780
vt 0.326068 0.662780
vt 0.326068 0.001992
vt 0.396970 0.001992
vt 0.255167 0.662780
vt 0.255167 0.001992
vt 0.657994 0.001992
vt 0.728895 0.001992
vt 0.728895 0.662780
vt 0.657994 0.662780
vt 0.799797 0.001992
vt 0.799797 0.662780
vt 0.191553 0.897716
vt 0.191553 0.922789
vt 0.183164 0.922789
vt 0.183164 0.897716
vt 0.191553 0.947862
vt 0.183164 0.947862
vt 0.198732 0.947862
vt 0.198732 0.922789
vt 0.207122 0.922789
vt 0.207122 0.947862
vt 0.198732 0.897716
vt 0.207122 0.897716
vt 0.295176 0.953257
vt 0.280037 0.953257
vt 0.280037 0.912878
vt 0.292514 0.912878
vt 0.264897 0.953257
vt 0.267560 0.912878
vt 0.338846 0.912878
vt 0.353986 0.912878
vt 0.353986 0.953257
vt 0.341509 0.953257
vt 0.369125 0.912878
vt 0.366463 0.953257
vn 0.722168 0.551933 -0.416944
vn 0.416944 0.551933 -0.722169
vn 0.444074 0.459560 -0.769158
vn 0.769158 0.459559 -0.444074
vn -0.000000 0.551933 -0.833889
vn -0.000000 0.459560 -0.888147
vn -0.416944 0.551933 -0.722169
vn -0.444074 0.459559 -0.769158
vn -0.722169 0.551933 -0.416944
vn -0.769158 0.459559 -0.444074
vn -0.833888 0.551933 0.000000
vn -0.888147 0.459559 -0.000000
vn -0.722168 0.551933 0.416944
vn -0.769158 0.459559 0.444074
vn -0.416944 0.551933 0.722169
vn -0.444074 0.459560 0.769158
vn 0.000000 0.551933 0.833889
vn 0.000000 0.459560 0.888147
vn 0.416944 0.551933 0.722169
vn 0.444074 0.459559 0.769158
vn 0.722169 0.551933 0.416944
vn 0.769158 0.459559 0.444074
vn 0.833888 0.551933 -0.000000
vn 0.888147 0.459559 0.000000
vn 0.319075 0.769913 -0.552653
vn 0.552653 0.769913 -0.319074
vn 0.000000 0.769913 -0.638149
vn -0.319074 0.769913 -0.552654
vn -0.552653 0.769913 -0.319075
vn -0.638149 0.769913 -0.000000
vn -0.552653 0.769913 0.319074
vn -0.319075 0.769913 0.552653
vn -0.000000 0.769913 0.638149
vn 0.319074 0.769913 0.552654
vn 0.552653 0.769913 0.319075
vn 0.638149 0.769913 0.000000
vn 0.171967 0.938994 -0.297856
vn 0.297855 0.938994 -0.171966
vn 0.000000 0.938994 -0.343933
vn -0.171967 0.938994 -0.297856
vn -0.297855 0.938994 -0.171967
vn -0.343933 0.938994 -0.000001
vn -0.297855 0.938994 0.171966
vn -0.171967 0.938994 0.297856
vn 0.000000 0.938994 0.343933
vn 0.171967 0.938994 0.297856
vn 0.297855 0.938994 0.171967
vn 0.343933 0.938994 0.000001
vn -0.214573 0.968820 0.123884
vn -0.123884 0.968819 0.214575
vn -0.000000 1.000000 0.000000
vn 0.000000 0.968820 0.247767
vn 0.123884 0.968820 0.214572
vn 0.214573 0.968820 0.123884
vn 0.247768 0.968819 0.000000
vn 0.214573 0.968820 -0.123884
vn 0.123884 0.968820 -0.214572
vn 0.000000 0.968820 -0.247766
vn -0.123884 0.968819 -0.214575
vn -0.214573 0.968820 -0.123884
vn -0.247768 0.968820 0.000000
vn 0.862584 -0.089060 -0.498013
vn 0.498013 -0.089060 -0.862584
vn 0.500000 0.000000 -0.866025
vn 0.866025 0.000000 -0.500000
vn 0.000000 -0.089060 -0.996026
vn 0.000000 0.000000 -1.000000
vn -0.498013 -0.089060 -0.862584
vn -0.500000 0.000000 -0.866025
vn -0.862584 -0.089060 -0.498013
vn -0.866025 0.000000 -0.500000
vn -0.996026 -0.089060 0.000000
vn -1.000000 0.000000 0.000000
vn -0.862584 -0.089060 0.498013
vn -0.866025 0.000000 0.500000
vn -0.498013 -0.089060 0.862584
vn -0.500000 0.000000 0.866025
vn 0.000000 -0.089060 0.996026
vn 0.000000 0.000000 1.000000
vn 0.498013 -0.089060 0.862584
vn 0.500000 0.000000 0.866025
vn 0.862584 -0.089060 0.498013
vn 0.866025 0.000000 0.500000
vn 0.996026 -0.089060 -0.000000
vn 1.000000 0.000000 0.000000
vn 0.000000 -1.000000 0.000000
vn 0.000000 1.000000 -0.000003
vn 0.000000 1.000000 0.000000
vn 0.000000 1.000000 -0.000001
vn 0.000000 1.000000 -0.000001
vn 0.000000 1.000000 0.000003
vn 0.000000 1.000000 0.000007
vn 0.000000 1.000000 0.000003
vn 0.000000 1.000000 0.000000
vn 0.000000 1.000000 0.000001
vn 0.000000 1.000000 0.000001
vn 0.000000 1.000000 -0.000003
vn 0.000000 1.000000 -0.000007
vn 0.701224 -0.128727 -0.701224
vn 0.000000 -0.128727 -0.991680
vn 0.000000 0.231577 -0.972817
vn 0.687885 0.231577 -0.687885
vn -0.701224 -0.128727 -0.701224
vn -0.687885 0.231577 -0.687885
vn -0.991680 -0.128727 0.000000
vn -0.972817 0.231577 0.000000
vn -0.701224 -0.128727 0.701224
vn -0.687885 0.231577 0.687885
vn -0.000000 -0.128727 0.991680
vn -0.000000 0.231577 0.972817
vn 0.701224 -0.128727 0.701224
vn 0.687885 0.231577 0.687885
vn 0.991680 -0.128727 -0.000000
vn 0.972817 0.231577 -0.000000
vn 0.000000 -1.000000 0.000000
vn 0.000000 1.000000 0.000000
s 1
g paint_can
usemtl initialShadingGroup
f 1/20/1 2/26/2 14/27/3 13/21/4
f 2/181/2 3/182/5 15/183/6 14/184/3
f 3/182/5 4/185/7 16/186/8 15/183/6
f 4/9/7 5/1/9 17/4/10 16/10/8
f 5/1/9 6/2/11 18/3/12 17/4/10
f 6/2/11 7/5/13 19/6/14 18/3/12
f 7/5/13 8/11/15 20/12/16 19/6/14
f 8/187/15 9/188/17 21/189/18 20/190/16
f 9/188/17 10/191/19 22/192/20 21/189/18
f 10/24/19 11/16/21 23/19/22 22/25/20
f 11/16/21 12/17/23 24/18/24 23/19/22
f 12/17/23 1/20/1 13/21/4 24/18/24
f 13/21/4 14/27/3 26/30/25 25/28/26
f 14/91/3 15/92/6 27/87/27 26/84/25
f 15/92/6 16/97/8 28/93/28 27/87/27
f 16/10/8 17/4/10 29/8/29 28/14/28
f 17/4/10 18/3/12 30/7/30 29/8/29
f 18/3/12 19/6/14 31/13/31 30/7/30
f 19/6/14 20/12/16 32/15/32 31/13/31
f 20/112/16 21/108/18 33/104/33 32/110/32
f 21/108/18 22/109/20 34/100/34 33/104/33
f 22/25/20 23/19/22 35/23/35 34/29/34
f 23/19/22 24/18/24 36/22/36 35/23/35
f 24/18/24 13/21/4 25/28/26 36/22/36
f 25/83/26 26/84/25 38/85/37 37/86/38
f 26/84/25 27/87/27 39/88/39 38/85/37
f 27/87/27 28/93/28 40/94/40 39/88/39
f 28/93/28 29/98/29 41/99/41 40/94/40
f 29/98/29 30/102/30 42/103/42 41/99/41
f 30/102/30 31/106/31 43/107/43 42/103/42
f 31/106/31 32/110/32 44/111/44 43/107/43
f 32/110/32 33/104/33 45/105/45 44/111/44
f 33/104/33 34/100/34 46/101/46 45/105/45
f 34/100/34 35/95/35 47/96/47 46/101/46
f 35/95/35 36/89/36 48/90/48 47/96/47
f 36/89/36 25/83/26 37/86/38 48/90/48
f 74/113/49 75/114/50 76/115/51
f 75/114/50 77/116/52 76/115/51
f 77/116/52 78/118/53 76/115/51
f 78/118/53 79/120/54 76/115/51
f 79/120/54 80/122/55 76/115/51
f 80/122/55 81/124/56 76/115/51
f 81/124/56 82/125/57 76/115/51
f 82/125/57 83/123/58 76/115/51
f 83/123/58 84/121/59 76/115/51
f 84/121/59 85/119/60 76/115/51
f 85/119/60 86/117/61 76/115/51
f 86/117/61 74/113/49 76/115/51
s 2
f 49/45/62 50/49/63 62/50/64 61/46/65
f 50/193/63 51/194/66 63/195/67 62/196/64
f 51/194/66 52/197/68 64/198/69 63/195/67
f 52/37/68 53/31/70 65/34/71 64/38/69
f 53/31/70 54/32/72 66/33/73 65/34/71
f 54/32/72 55/35/74 67/36/75 66/33/73
f 55/35/74 56/39/76 68/40/77 67/36/75
f 56/199/76 57/200/78 69/201/79 68/202/77
f 57/200/78 58/203/80 70/204/81 69/201/79
f 58/47/80 59/41/82 71/44/83 70/48/81
f 59/41/82 60/42/84 72/43/85 71/44/83
f 60/42/84 49/45/62 61/46/65 72/43/85
f 50/126/63 49/127/62 73/128/86
f 51/130/66 50/126/63 73/128/86
f 52/132/68 51/130/66 73/128/86
f 53/134/70 52/132/68 73/128/86
f 54/136/72 53/134/70 73/128/86
f 55/138/74 54/136/72 73/128/86
f 56/137/76 55/138/74 73/128/86
f 57/135/78 56/137/76 73/128/86
f 58/133/80 57/135/78 73/128/86
f 59/131/82 58/133/80 73/128/86
f 60/129/84 59/131/82 73/128/86
f 49/127/62 60/129/84 73/128/86
s 1
f 62/139/87 2/140/2 1/141/1 61/142/88
f 61/142/88 1/141/1 12/145/23 72/146/89
f 72/146/89 12/145/23 11/149/21 71/150/90
f 71/150/90 11/149/21 10/153/19 70/154/91
f 70/154/91 10/153/19 9/157/17 69/158/92
f 69/158/92 9/157/17 8/161/15 68/162/93
f 68/162/93 8/161/15 7/160/13 67/159/94
f 67/159/94 7/160/13 6/156/11 66/155/95
f 66/155/95 6/156/11 5/152/9 65/151/96
f 65/151/96 5/152/9 4/148/7 64/147/97
f 64/147/97 4/148/7 3/144/5 63/143/98
f 63/143/98 3/144/5 2/140/2 62/139/87
f 37/65/38 38/69/37 75/70/50 74/66/49
f 38/205/37 39/206/39 77/207/52 75/208/50
f 39/206/39 40/209/40 78/210/53 77/207/52
f 40/57/40 41/51/41 79/54/54 78/58/53
f 41/51/41 42/52/42 80/53/55 79/54/54
f 42/52/42 43/55/43 81/56/56 80/53/55
f 43/55/43 44/59/44 82/60/57 81/56/56
f 44/211/44 45/212/45 83/213/58 82/214/57
f 45/212/45 46/215/46 84/216/59 83/213/58
f 46/67/46 47/61/47 85/64/60 84/68/59
f 47/61/47 48/62/48 86/63/61 85/64/60
f 48/62/48 37/65/38 74/66/49 86/63/61
s 3
f 87/217/99 88/218/100 96/219/101 95/220/102
f 88/218/100 89/221/103 97/222/104 96/219/101
f 89/71/103 90/72/105 98/73/106 97/74/104
f 90/72/105 91/75/107 99/76/108 98/73/106
f 91/223/107 92/224/109 100/225/110 99/226/108
f 92/224/109 93/227/111 101/228/112 100/225/110
f 93/77/111 94/78/113 102/79/114 101/80/112
f 94/78/113 87/81/99 95/82/102 102/79/114
f 88/163/100 87/164/99 103/165/115
f 89/167/103 88/163/100 103/165/115
f 90/169/105 89/167/103 103/165/115
f 91/171/107 90/169/105 103/165/115
f 92/170/109 91/171/107 103/165/115
f 93/168/111 92/170/109 103/165/115
f 94/166/113 93/168/111 103/165/115
f 87/164/99 94/166/113 103/165/115
f 95/172/102 96/173/101 104/174/116
f 96/173/101 97/175/104 104/174/116
f 97/175/104 98/177/106 104/174/116
f 98/177/106 99/179/108 104/174/116
f 99/179/108 100/180/110 104/174/116
f 100/180/110 101/178/112 104/174/116
f 101/178/112 102/176/114 104/174/116
f 102/176/114 95/172/102 104/174/116
