# This file uses centimeters as units for non-parametric coordinates.

mtllib scissors_low.mtl
g default
v 35.903510 -0.500000 -15.247330
v 31.944757 -0.500000 -11.963493
v 35.903510 0.500000 -15.247330
v 31.944757 0.500000 -11.963493
v 35.903511 0.500000 -17.542180
v 31.134462 0.500000 -13.586204
v 35.903511 -0.500000 -17.542180
v 31.134462 -0.500000 -13.586204
v 35.749578 0.300000 -17.414491
v 31.288395 0.300000 -13.713893
v 35.749578 -0.300000 -17.414491
v 31.288395 -0.300000 -13.713893
v 33.398479 -0.540139 -20.034242
v 28.937297 -0.540139 -16.333644
v 33.398479 -1.140139 -20.034242
v 28.937297 -1.140139 -16.333644
v 31.083086 -0.540139 -22.556615
v 26.621903 -0.540139 -22.556615
v 31.083086 -1.140139 -22.556615
v 26.621903 -1.140139 -22.556615
v 29.187904 -0.540139 -73.236218
v 28.517085 -0.540139 -73.236218
v 29.187904 -1.140139 -73.236218
v 28.517085 -1.140139 -73.236218
v 26.621903 -0.540139 -45.365270
v 26.621903 -1.140139 -45.365270
v 31.083086 -1.140139 -45.365270
v 31.083086 -0.540139 -45.365270
v 32.451877 -0.500000 1.371338
v 33.923936 -0.500000 5.534069
v 33.923936 0.500000 5.534069
v 32.451877 0.500000 1.371338
v 32.780754 0.500000 6.880641
v 30.701221 0.500000 3.420396
v 32.780754 -0.500000 6.880641
v 30.701221 -0.500000 3.420396
v 36.893199 -0.500000 6.355192
v 34.913822 -0.500000 6.355192
v 36.893199 0.500000 6.355192
v 34.913822 0.500000 6.355192
v 36.893199 0.500000 8.650042
v 34.913823 0.500000 8.650042
v 36.893199 -0.500000 8.650042
v 34.913823 -0.500000 8.650042
v 40.252899 -0.500000 2.003682
v 38.377880 -0.500000 5.123631
v 40.252899 0.500000 2.003682
v 38.377880 0.500000 5.123631
v 41.063194 0.500000 3.626393
v 39.188173 0.500000 6.746340
v 41.063194 -0.500000 3.626393
v 39.188173 -0.500000 6.746340
v 40.877526 -0.500000 -7.054920
v 40.877526 -0.500000 -1.016255
v 40.877526 0.500000 -7.054920
v 40.877526 0.500000 -1.016255
v 42.023454 0.500000 -7.054921
v 42.023454 0.500000 -1.016255
v 42.023454 -0.500000 -7.054921
v 42.023454 -0.500000 -1.016255
v 37.933495 -0.500000 -13.563432
v 40.369845 -0.500000 -9.509452
v 37.933495 0.500000 -13.563432
v 40.369845 0.500000 -9.509452
v 38.743788 0.500000 -15.186140
v 41.180140 0.500000 -11.132163
v 38.743788 -0.500000 -15.186140
v 41.180140 -0.500000 -11.132163
v 33.098991 -0.500000 -1.845575
v 31.349521 -0.500000 -4.035588
v 33.098991 -0.500000 -6.225600
v 33.098991 0.500000 -1.845575
v 33.098991 0.500000 -6.225600
v 31.349521 0.500000 -4.035588
v 30.254186 0.500000 -4.035588
v 29.385577 0.500000 -5.130704
v 29.385577 0.500000 -2.940473
v 29.385577 -0.500000 -2.940473
v 29.385577 -0.500000 -5.130704
v 30.254186 -0.500000 -4.035588
v 17.762443 -0.407610 -5.893434
v 25.679952 -0.407610 -5.893434
v 17.762443 -1.407610 -5.893434
v 25.679952 -1.407610 -5.893434
v 16.952148 -1.407610 -7.516144
v 21.721198 -1.407610 -11.472121
v 26.490247 -1.407610 -7.516144
v 16.952148 -0.407610 -7.516144
v 21.721198 -0.407610 -11.472121
v 26.490247 -0.407610 -7.516144
v 21.875132 -1.207610 -11.344431
v 26.336313 -1.207610 -7.643834
v 21.875132 -0.607610 -11.344431
v 26.336313 -0.607610 -7.643834
v 24.226230 -0.367471 -20.034242
v 28.687412 -0.367471 -16.333644
v 24.226230 0.232529 -20.034242
v 28.687412 0.232529 -16.333644
v 26.541623 -0.367471 -22.556615
v 31.002806 -0.367471 -22.556615
v 26.541623 0.232529 -22.556615
v 31.002806 0.232529 -22.556615
v 28.436805 -0.367471 -73.236218
v 29.107623 -0.367471 -73.236218
v 28.436805 0.232529 -73.236218
v 29.107623 0.232529 -73.236218
v 31.002806 -0.367471 -45.365270
v 31.002806 0.232529 -45.365270
v 26.541623 0.232529 -45.365270
v 26.541623 -0.367471 -45.365270
v 16.506628 -0.240930 -2.857716
v 16.942480 -0.407610 -4.964418
v 16.942480 -1.407610 -4.964418
v 16.506628 -1.240930 -2.857716
v 15.550505 -1.407610 -5.046511
v 15.307606 -1.407610 -2.921276
v 15.550505 -0.407610 -5.046511
v 15.307606 -0.407610 -2.921276
v 19.646685 0.304243 1.738944
v 17.134598 0.031684 -0.931237
v 19.646685 -0.695757 1.738944
v 17.134598 -0.968316 -0.931237
v 18.796966 -1.407610 3.482310
v 16.372234 -1.407610 0.664408
v 18.796966 -0.407610 3.482310
v 16.372234 -0.407610 0.664408
v 22.758352 0.304243 2.148598
v 20.684046 0.304243 2.148598
v 22.758352 -0.695757 2.148598
v 20.684046 -0.695757 2.148598
v 22.758351 -1.407610 4.366861
v 20.684045 -1.407610 4.366861
v 22.758351 -0.407610 4.366861
v 20.684045 -0.407610 4.366861
v 26.166654 0.092956 -0.498242
v 24.219298 0.304243 1.571670
v 26.166654 -0.907044 -0.498242
v 24.219298 -0.695757 1.571670
v 26.939793 -1.407610 1.103488
v 25.060153 -1.407610 3.287912
v 26.939793 -0.407610 1.103488
v 25.060153 -0.407610 3.287912
v 26.499914 -0.407610 -4.964418
v 26.935766 -0.240930 -2.857716
v 26.499914 -1.407610 -4.964418
v 26.935766 -1.240930 -2.857716
v 27.891889 -1.407610 -5.046511
v 28.134788 -1.407610 -2.921276
v 27.891889 -0.407610 -5.046511
v 28.134788 -0.407610 -2.921276
v 21.721199 -0.407610 -10.324581
v 20.573889 -0.407610 -8.225562
v 22.868509 -0.407610 -8.225562
v 21.721199 -1.407610 -10.324581
v 22.868509 -1.407610 -8.225562
v 20.573889 -1.407610 -8.225562
vt 0.927941 0.111727
vt 0.915778 0.111727
vt 0.915778 0.041935
vt 0.927941 0.041935
vt 0.915778 0.165003
vt 0.927941 0.165003
vt 0.915778 0.001992
vt 0.927941 0.001992
vt 0.915778 0.204132
vt 0.927941 0.204132
vt 0.915778 0.254765
vt 0.927941 0.254765
vt 0.915778 0.264752
vt 0.927941 0.264752
vt 0.009650 0.169613
vt 0.021814 0.169613
vt 0.021814 0.272461
vt 0.009650 0.272461
vt 0.021814 0.142972
vt 0.009650 0.142972
vt 0.019381 0.274014
vt 0.012083 0.274014
vt 0.021814 0.065602
vt 0.009650 0.065602
vt 0.021814 0.320579
vt 0.019381 0.319026
vt 0.009162 0.305879
vt 0.001864 0.305879
vt 0.021814 0.023514
vt 0.009650 0.023514
vt 0.009650 0.320579
vt 0.012083 0.319026
vt 0.009162 0.381571
vt 0.001864 0.381571
vt 0.021814 0.001992
vt 0.009650 0.001992
vt 0.009162 0.659002
vt 0.001864 0.659002
vt 0.009162 0.998008
vt 0.001864 0.998008
vt 0.560137 0.618429
vt 0.552839 0.618429
vt 0.552839 0.340998
vt 0.560137 0.340998
vt 0.560137 0.649109
vt 0.552839 0.649109
vt 0.552839 0.001992
vt 0.560137 0.001992
vt 0.570356 0.680974
vt 0.563057 0.680974
vt 0.921765 0.431600
vt 0.921765 0.358149
vt 0.933928 0.358149
vt 0.933928 0.431600
vt 0.921765 0.321417
vt 0.933928 0.321417
vt 0.921765 0.461456
vt 0.933928 0.461456
vt 0.921765 0.283467
vt 0.933928 0.283467
vt 0.921765 0.510766
vt 0.933928 0.510766
vt 0.921765 0.268487
vt 0.933928 0.268487
vt 0.921765 0.531248
vt 0.933928 0.531248
vt 0.909703 0.129553
vt 0.909703 0.203004
vt 0.897539 0.203004
vt 0.897539 0.129553
vt 0.909703 0.259474
vt 0.897539 0.259474
vt 0.909703 0.079960
vt 0.897539 0.079960
vt 0.909703 0.297423
vt 0.897539 0.297423
vt 0.909703 0.030650
vt 0.897539 0.030650
vt 0.909703 0.320579
vt 0.897539 0.320579
vt 0.909703 0.001992
vt 0.897539 0.001992
vt 0.292033 0.001992
vt 0.299331 0.001992
vt 0.309550 0.107690
vt 0.302252 0.107690
vt 0.309550 0.138370
vt 0.302252 0.138370
vt 0.309550 0.415801
vt 0.302252 0.415801
vt 0.309550 0.754807
vt 0.302252 0.754807
vt 0.037311 0.799819
vt 0.030013 0.799819
vt 0.040232 0.694121
vt 0.047530 0.694121
vt 0.039743 0.801372
vt 0.027580 0.801372
vt 0.040232 0.618429
vt 0.047530 0.618429
vt 0.027580 0.831411
vt 0.039743 0.831411
vt 0.027580 0.753254
vt 0.030013 0.754807
vt 0.040232 0.340998
vt 0.047530 0.340998
vt 0.027580 0.857261
vt 0.039743 0.857261
vt 0.040232 0.001992
vt 0.047530 0.001992
vt 0.027580 0.906216
vt 0.039743 0.906216
vt 0.027580 0.932786
vt 0.039743 0.932786
vt 0.565933 0.724376
vt 0.567960 0.750001
vt 0.555797 0.750001
vt 0.553769 0.724376
vt 0.571276 0.773433
vt 0.559113 0.773433
vt 0.565933 0.713076
vt 0.553769 0.713076
vt 0.574591 0.805912
vt 0.562428 0.805912
vt 0.553769 0.684710
vt 0.565933 0.684710
vt 0.580333 0.428053
vt 0.580333 0.402203
vt 0.592496 0.402203
vt 0.592496 0.428053
vt 0.580333 0.358589
vt 0.592496 0.358589
vt 0.580333 0.458093
vt 0.592496 0.458093
vt 0.580333 0.324314
vt 0.592496 0.324314
vt 0.580333 0.506211
vt 0.592496 0.506211
vt 0.541397 0.783598
vt 0.539370 0.809222
vt 0.527206 0.809222
vt 0.529234 0.783598
vt 0.539370 0.820523
vt 0.527206 0.820523
vt 0.545458 0.754899
vt 0.533295 0.754899
vt 0.539370 0.848889
vt 0.527206 0.848889
vt 0.548028 0.729721
vt 0.535865 0.729721
vt 0.607676 0.252723
vt 0.655828 0.292665
vt 0.655828 0.320579
vt 0.597820 0.272461
vt 0.680520 0.272184
vt 0.690376 0.291921
vt 0.600436 0.156293
vt 0.621716 0.182931
vt 0.576548 0.169613
vt 0.587113 0.156293
vt 0.710154 0.222873
vt 0.720010 0.242611
vt 0.621716 0.129654
vt 0.576548 0.142972
vt 0.613845 0.090526
vt 0.592551 0.065602
vt 0.716329 0.193018
vt 0.730268 0.193018
vt 0.631750 0.039893
vt 0.617845 0.023514
vt 0.716329 0.119567
vt 0.730268 0.119567
vt 0.643790 0.029905
vt 0.643790 0.001992
vt 0.708732 0.082834
vt 0.718588 0.063097
vt 0.667866 0.029905
vt 0.667866 0.001992
vt 0.685925 0.044885
vt 0.695781 0.025148
vt 0.758316 0.050110
vt 0.816324 0.001992
vt 0.816324 0.029905
vt 0.768172 0.069848
vt 0.850871 0.030650
vt 0.841016 0.050387
vt 0.747609 0.166278
vt 0.737044 0.152958
vt 0.782211 0.139640
vt 0.760932 0.166278
vt 0.870650 0.099697
vt 0.880506 0.079960
vt 0.737044 0.179599
vt 0.782211 0.192916
vt 0.753046 0.256968
vt 0.774340 0.232045
vt 0.890763 0.129553
vt 0.876825 0.129553
vt 0.792246 0.282678
vt 0.778341 0.299057
vt 0.876825 0.203004
vt 0.890763 0.203004
vt 0.804286 0.320579
vt 0.804286 0.292666
vt 0.879083 0.259474
vt 0.869227 0.239736
vt 0.828362 0.292666
vt 0.828362 0.320579
vt 0.846421 0.277686
vt 0.856277 0.297423
vt 0.372503 0.001992
vt 0.426766 0.047004
vt 0.398169 0.078869
vt 0.343906 0.033857
vt 0.370006 0.109550
vt 0.315743 0.109550
vt 0.370006 0.386981
vt 0.315743 0.386981
vt 0.346954 0.725986
vt 0.338794 0.725986
vt 0.545314 0.680974
vt 0.491051 0.725986
vt 0.462454 0.694121
vt 0.516717 0.649109
vt 0.434291 0.618429
vt 0.488554 0.618429
vt 0.434291 0.340998
vt 0.488554 0.340998
vt 0.457342 0.001992
vt 0.465502 0.001992
vt 0.886164 0.392170
vt 0.851968 0.363803
vt 0.838012 0.338272
vt 0.838012 0.324314
vt 0.896020 0.372432
vt 0.824057 0.363803
vt 0.789860 0.392170
vt 0.780004 0.372432
vt 0.896138 0.403470
vt 0.913069 0.402471
vt 0.779887 0.403470
vt 0.762956 0.402471
vt 0.901439 0.429094
vt 0.916023 0.428321
vt 0.774585 0.429094
vt 0.760001 0.428321
vt 0.892084 0.457794
vt 0.901488 0.477276
vt 0.782224 0.452527
vt 0.772951 0.471935
vt 0.868398 0.482971
vt 0.878625 0.503846
vt 0.812779 0.485005
vt 0.802444 0.506211
vt 0.850628 0.489988
vt 0.850628 0.516970
vt 0.825397 0.489988
vt 0.825397 0.516970
vt 0.676249 0.516970
vt 0.618241 0.468852
vt 0.628097 0.449114
vt 0.662294 0.477481
vt 0.676249 0.503012
vt 0.601192 0.438813
vt 0.618123 0.437814
vt 0.690204 0.477481
vt 0.734257 0.468852
vt 0.724401 0.449114
vt 0.612822 0.412189
vt 0.598238 0.412962
vt 0.751305 0.438813
vt 0.734374 0.437814
vt 0.611187 0.369348
vt 0.620460 0.388757
vt 0.739676 0.412189
vt 0.754260 0.412962
vt 0.651016 0.356278
vt 0.640680 0.335073
vt 0.739725 0.364008
vt 0.730321 0.383490
vt 0.663633 0.324314
vt 0.663633 0.351295
vt 0.706634 0.358313
vt 0.716862 0.337438
vt 0.688864 0.351295
vt 0.688864 0.324314
vt 0.109200 0.799819
vt 0.054937 0.754807
vt 0.083534 0.649109
vt 0.137798 0.694121
vt 0.111698 0.618429
vt 0.165961 0.618429
vt 0.111698 0.340998
vt 0.165961 0.340998
vt 0.134749 0.001992
vt 0.142909 0.001992
vt 0.173485 0.047004
vt 0.227748 0.001992
vt 0.256346 0.107690
vt 0.202082 0.152702
vt 0.284509 0.183382
vt 0.230245 0.183382
vt 0.284509 0.460813
vt 0.230245 0.460813
vt 0.261457 0.799819
vt 0.253297 0.799819
vt 0.398564 0.737881
vt 0.398564 0.729722
vt 0.405862 0.729722
vt 0.405862 0.737881
vt 0.441672 0.729722
vt 0.441672 0.753798
vt 0.429508 0.753798
vt 0.429508 0.729722
vt 0.423767 0.729722
vt 0.423767 0.753798
vt 0.411604 0.753798
vt 0.411604 0.729722
vt 0.392823 0.729722
vt 0.392823 0.737881
vt 0.385525 0.737881
vt 0.385525 0.729722
vt 0.491397 0.772722
vt 0.491397 0.747492
vt 0.503560 0.747492
vt 0.503560 0.772722
vt 0.491397 0.729722
vt 0.503560 0.729722
vt 0.491397 0.785340
vt 0.503560 0.785340
vt 0.509301 0.782950
vt 0.509301 0.757719
vt 0.521465 0.757719
vt 0.521465 0.782950
vt 0.509301 0.729721
vt 0.521465 0.729721
vt 0.509301 0.805903
vt 0.521465 0.805903
vt 0.459577 0.729721
vt 0.459577 0.757632
vt 0.447413 0.757632
vt 0.447413 0.729721
vt 0.483223 0.777840
vt 0.483223 0.729721
vt 0.485655 0.731275
vt 0.485655 0.776286
vt 0.465318 0.729721
vt 0.477481 0.729721
vt 0.475049 0.731275
vt 0.467751 0.731275
vt 0.477481 0.777840
vt 0.475049 0.776286
vn 0.196678 -0.978560 0.061140
vn 0.068608 -0.964025 0.256805
vn 0.068608 0.964025 0.256805
vn 0.196678 0.978560 0.061140
vn 0.316516 0.947900 -0.036108
vn 0.316516 -0.947900 -0.036108
vn 0.201360 0.913953 -0.352341
vn -0.405634 0.908137 -0.103673
vn -0.218668 0.975592 -0.020132
vn 0.218668 0.975592 -0.020132
vn 0.218668 -0.975592 -0.020132
vn -0.218668 -0.975592 -0.020132
vn -0.343661 -0.937395 -0.056457
vn -0.343661 0.937395 -0.056457
vn -0.405634 -0.908137 -0.103673
vn 0.201360 -0.913953 -0.352341
vn -0.141952 0.941946 -0.304282
vn -0.263721 0.945592 -0.190547
vn 0.175061 -0.984286 0.023120
vn 0.003576 -0.983076 0.183165
vn 0.003055 0.988050 -0.154104
vn -0.216844 0.976069 -0.016372
vn 0.136099 -0.990295 0.028165
vn -0.052034 -0.985814 0.159571
vn 0.110421 0.993834 -0.010093
vn -0.143468 0.989589 0.011442
vn 0.110421 -0.993834 -0.010093
vn -0.143468 -0.989589 0.011442
vn 0.175891 0.984388 -0.006578
vn -0.175891 0.984388 -0.006578
vn 0.175891 -0.984388 -0.006578
vn -0.175891 -0.984388 -0.006578
vn 0.211458 -0.977101 -0.023638
vn 0.311532 -0.937691 -0.153892
vn -0.424795 -0.838129 0.342182
vn -0.433824 -0.888428 0.149974
vn 0.211458 0.977101 -0.023638
vn 0.311532 0.937691 -0.153892
vn -0.433824 0.888428 0.149974
vn -0.424795 0.838129 0.342182
vn 0.279095 -0.959969 0.023774
vn 0.279095 0.959969 0.023774
vn 0.000000 1.000000 0.000000
vn 0.000000 1.000000 0.000000
vn -0.324731 0.944486 0.049962
vn -0.324731 -0.944486 0.049962
vn 0.000000 -1.000000 0.000000
vn 0.000000 -1.000000 0.000000
vn -0.108029 -0.946573 -0.303859
vn 0.080639 -0.953135 -0.291600
vn 0.080639 0.953135 -0.291600
vn -0.108030 0.946572 -0.303859
vn 0.226827 -0.830164 0.509291
vn -0.223112 -0.825420 0.518558
vn -0.223112 0.825420 0.518558
vn 0.226827 0.830164 0.509291
vn -0.495199 -0.845064 -0.201604
vn -0.346692 -0.898975 -0.267673
vn -0.346692 0.898975 -0.267673
vn -0.495199 0.845064 -0.201604
vn 0.618553 -0.752562 0.225926
vn 0.467615 -0.794148 0.388155
vn 0.467615 0.794148 0.388155
vn 0.618553 0.752562 0.225926
vn -0.605613 -0.794935 0.036201
vn -0.605807 -0.794514 -0.041773
vn -0.605807 0.794514 -0.041773
vn -0.605613 0.794935 0.036201
vn 0.703781 -0.707990 -0.058671
vn 0.703748 -0.707627 0.063268
vn 0.703748 0.707627 0.063268
vn 0.703781 0.707990 -0.058671
vn -0.351379 -0.895391 0.273512
vn -0.511722 -0.827383 0.231470
vn -0.511722 0.827383 0.231470
vn -0.351379 0.895391 0.273512
vn 0.464256 -0.799008 -0.382168
vn 0.564192 -0.793664 -0.227563
vn 0.564192 0.793664 -0.227563
vn 0.464256 0.799008 -0.382168
vn 0.123052 -0.955130 0.269416
vn 0.123052 0.955130 0.269416
vn 0.261076 0.920501 0.290718
vn 0.261076 -0.920501 0.290718
vn -0.261076 0.920501 0.290718
vn -0.123052 0.955130 0.269416
vn -0.123052 -0.955130 0.269416
vn -0.261076 -0.920501 0.290718
vn 0.000000 -1.000000 0.000000
vn -0.287679 -0.854632 -0.432256
vn 0.224098 -0.963178 -0.148553
vn -0.419069 -0.813892 -0.402444
vn -0.419069 0.813892 -0.402444
vn -0.287679 0.854632 -0.432256
vn 0.218668 -0.975592 -0.020132
vn -0.218668 -0.975592 -0.020132
vn -0.218668 0.975592 -0.020132
vn 0.218668 0.975592 -0.020132
vn 0.000000 1.000000 -0.000000
vn 0.224098 0.963178 -0.148553
vn 0.005744 -0.992021 -0.125941
vn 0.237097 -0.967916 -0.083204
vn -0.134165 0.990565 0.027931
vn 0.130314 0.988563 0.075912
vn -0.082134 -0.991923 -0.096655
vn 0.164776 -0.986052 -0.023472
vn -0.149030 0.988833 0.000250
vn 0.058916 0.993822 0.094061
vn -0.110421 -0.993834 -0.010093
vn 0.143468 -0.989589 0.011442
vn -0.110421 0.993834 -0.010093
vn 0.143468 0.989589 0.011442
vn -0.175891 -0.984388 -0.006578
vn 0.175891 -0.984388 -0.006578
vn -0.175891 0.984388 -0.006578
vn 0.175891 0.984388 -0.006578
vn 0.356753 0.933573 -0.034205
vn 0.410923 0.897731 0.158812
vn -0.677632 0.690291 -0.253600
vn -0.777518 0.622014 0.092549
vn 0.596036 -0.802843 -0.013591
vn 0.420450 -0.888257 0.184992
vn -0.668001 -0.734593 0.118941
vn -0.655735 -0.721266 -0.223127
vn 0.028040 0.997118 -0.070492
vn 0.172877 0.965368 -0.195392
vn -0.642008 0.674083 0.365292
vn -0.477955 0.686596 0.547855
vn 0.421044 -0.784543 -0.455208
vn 0.568073 -0.754960 -0.327611
vn -0.221461 -0.937083 0.269870
vn -0.352762 -0.919931 0.171129
vn 0.015289 0.998946 -0.043288
vn -0.018319 0.998948 -0.042036
vn -0.130364 0.738871 0.661117
vn 0.146560 0.734451 0.662647
vn -0.110852 -0.815957 -0.567386
vn 0.094041 -0.819205 -0.565738
vn 0.082325 -0.966234 0.244161
vn -0.076206 -0.967767 0.240042
vn -0.146770 0.974559 -0.169391
vn -0.017729 0.997914 -0.062070
vn 0.444973 0.692888 0.567367
vn 0.683284 0.637398 0.356156
vn -0.586402 -0.753098 -0.298289
vn -0.396566 -0.782592 -0.479880
vn 0.418252 -0.889861 0.182242
vn 0.192608 -0.948734 0.250610
vn -0.410923 0.897731 0.158812
vn -0.345404 0.937438 -0.043652
vn 0.780843 0.616310 0.102206
vn 0.677633 0.690291 -0.253600
vn -0.420450 -0.888257 0.184992
vn -0.608912 -0.792659 -0.030319
vn 0.655736 -0.721266 -0.223127
vn 0.656544 -0.743994 0.124188
s 1
g scissors
usemtl initialShadingGroup
f 2/3/1 1/7/2 3/8/3 4/4/4
f 73/1/5 71/2/6 2/3/1 4/4/4
f 4/151/4 3/152/3 5/153/7 6/154/8
f 22/307/9 21/308/10 23/309/11 24/310/12
f 79/15/13 76/16/14 6/17/8 8/18/15
f 8/181/15 7/182/16 1/183/2 2/184/1
f 6/17/8 5/25/7 9/26/17 10/21/18
f 5/25/7 7/31/16 11/32/19 9/26/17
f 7/343/16 8/344/15 12/345/20 11/346/19
f 8/18/15 6/17/8 10/21/18 12/22/20
f 10/211/18 9/212/17 13/213/21 14/214/22
f 9/49/17 11/50/19 15/46/23 13/45/21
f 11/221/19 12/222/20 16/223/24 15/224/23
f 12/22/20 10/21/18 14/27/22 16/28/24
f 14/214/22 13/213/21 17/215/25 18/216/26
f 13/45/21 15/46/23 19/42/27 17/41/25
f 15/224/23 16/223/24 20/225/28 19/226/27
f 16/28/24 14/27/22 18/33/26 20/34/28
f 18/216/26 17/215/25 28/217/29 25/218/30
f 17/41/25 19/42/27 27/43/31 28/44/29
f 19/226/27 20/225/28 26/227/32 27/228/31
f 20/34/28 18/33/26 25/37/30 26/38/32
f 26/38/32 25/37/30 22/39/9 24/40/12
f 27/228/31 26/227/32 24/229/12 23/230/11
f 28/44/29 27/43/31 23/47/11 21/48/10
f 25/218/30 28/217/29 21/219/10 22/220/9
f 29/196/33 30/199/34 35/200/35 36/195/36
f 30/11/34 29/9/33 32/10/37 31/12/38
f 31/169/38 32/165/37 34/166/39 33/170/40
f 33/29/40 34/23/39 36/24/36 35/30/35
f 29/9/33 69/5/41 72/6/42 32/10/37
f 32/165/37 72/163/42 74/157/43 75/160/44 77/164/45 34/166/39
f 34/23/39 77/19/45 78/20/46 36/24/36
f 36/195/36 78/193/46 80/187/47 70/190/48 69/194/41 29/196/33
f 37/311/49 38/312/50 40/313/51 39/314/52
f 38/204/50 37/207/49 43/208/53 44/203/54
f 39/177/52 40/173/51 42/174/55 41/178/56
f 41/315/56 42/316/55 44/317/54 43/318/53
f 38/13/50 30/11/34 31/12/38 40/14/51
f 40/173/51 31/169/38 33/170/40 42/174/55
f 42/35/55 33/29/40 35/30/35 44/36/54
f 44/203/54 35/200/35 30/199/34 38/204/50
f 45/55/57 46/59/58 48/60/59 47/56/60
f 46/209/58 45/206/57 51/205/61 52/210/62
f 47/175/60 48/179/59 50/180/63 49/176/64
f 49/71/64 50/75/63 52/76/62 51/72/61
f 46/59/58 37/63/49 39/64/52 48/60/59
f 48/179/59 39/177/52 41/178/56 50/180/63
f 50/75/63 41/79/56 43/80/53 52/76/62
f 52/210/62 43/208/53 37/207/49 46/209/58
f 53/51/65 54/52/66 56/53/67 55/54/68
f 54/201/66 53/198/65 59/197/69 60/202/70
f 55/167/68 56/171/67 58/172/71 57/168/72
f 57/67/72 58/68/71 60/69/70 59/70/69
f 54/52/66 45/55/57 47/56/60 56/53/67
f 56/171/67 47/175/60 49/176/64 58/172/71
f 58/68/71 49/71/64 51/72/61 60/69/70
f 60/202/70 51/205/61 45/206/57 54/201/66
f 61/61/73 62/57/74 64/58/75 63/62/76
f 62/191/74 61/186/73 67/185/77 68/192/78
f 63/155/76 64/161/75 66/162/79 65/156/80
f 65/77/80 66/73/79 68/74/78 67/78/77
f 1/65/2 61/61/73 63/62/76 3/66/3
f 3/152/3 63/155/76 65/156/80 5/153/7
f 5/81/7 65/77/80 67/78/77 7/82/16
f 7/182/16 67/185/77 61/186/73 1/183/2
f 62/57/74 53/51/65 55/54/68 64/58/75
f 64/161/75 55/167/68 57/168/72 66/162/79
f 66/73/79 57/67/72 59/70/69 68/74/78
f 68/192/78 59/197/69 53/198/65 62/191/74
f 74/157/43 73/158/5 4/151/4 6/154/8 76/159/14 75/160/44
f 69/5/41 71/2/6 73/1/5 72/6/42
f 69/194/41 70/190/48 71/189/6
f 72/163/42 73/158/5 74/157/43
f 80/187/47 79/188/13 8/181/15 2/184/1 71/189/6 70/190/48
f 77/19/45 76/16/14 79/15/13 78/20/46
f 75/160/44 76/159/14 77/164/45
f 78/193/46 79/188/13 80/187/47
s 9
f 156/125/81 152/126/82 81/121/83 83/122/84
f 82/143/85 153/147/86 155/148/87 84/144/88
f 84/231/88 155/232/87 154/233/89 86/234/90 87/235/91
f 86/137/90 85/133/92 88/134/93 89/138/94
f 104/319/95 103/320/96 105/321/97 106/322/98
f 89/259/94 88/260/93 81/261/83 152/262/82 151/263/99
f 90/267/100 89/259/94 151/263/99 153/266/86 82/268/85
f 87/98/91 86/103/90 91/104/101 92/94/102
f 86/347/90 89/348/94 93/349/103 91/350/101
f 89/348/94 90/351/100 94/352/104 93/349/103
f 90/97/100 87/98/91 92/94/102 94/93/104
f 92/287/102 91/288/101 95/289/105 96/290/106
f 91/83/101 93/84/103 97/85/107 95/86/105
f 93/297/103 94/298/104 98/299/108 97/300/107
f 94/93/104 92/94/102 96/95/106 98/96/108
f 96/290/106 95/289/105 99/291/109 100/292/110
f 95/86/105 97/85/107 101/87/111 99/88/109
f 97/300/107 98/299/108 102/301/112 101/302/111
f 98/96/108 96/95/106 100/99/110 102/100/112
f 100/292/110 99/291/109 110/293/113 107/294/114
f 99/88/109 101/87/111 109/89/115 110/90/113
f 101/302/111 102/301/112 108/303/116 109/304/115
f 102/100/112 100/99/110 107/105/114 108/106/116
f 108/106/116 107/105/114 104/109/95 106/110/98
f 109/304/115 108/303/116 106/305/98 105/306/97
f 110/90/113 109/89/115 105/91/97 103/92/96
f 107/294/114 110/293/113 103/295/96 104/296/95
f 111/269/117 112/265/118 117/264/119 118/270/120
f 112/115/118 111/116/117 114/117/121 113/118/122
f 113/241/122 114/245/121 116/246/123 115/242/124
f 115/127/124 116/128/123 118/129/120 117/130/119
f 81/121/83 112/115/118 113/118/122 83/122/84
f 83/237/84 113/241/122 115/242/124 85/238/92
f 85/133/92 115/127/124 117/130/119 88/134/93
f 88/260/93 117/264/119 112/265/118 81/261/83
f 119/277/125 120/274/126 126/273/127 125/278/128
f 120/119/126 119/123/125 121/124/129 122/120/130
f 122/249/130 121/253/129 123/254/131 124/250/132
f 124/131/132 123/135/131 125/136/128 126/132/127
f 111/116/117 120/119/126 122/120/130 114/117/121
f 114/245/121 122/249/130 124/250/132 116/246/123
f 116/128/123 124/131/132 126/132/127 118/129/120
f 118/270/120 126/273/127 120/274/126 111/269/117
f 127/285/133 128/282/134 134/281/135 133/286/136
f 128/323/134 127/324/133 129/325/137 130/326/138
f 130/257/138 129/255/137 131/256/139 132/258/140
f 132/331/140 131/332/139 133/333/136 134/334/135
f 119/329/125 128/323/134 130/326/138 121/330/129
f 121/253/129 130/257/138 132/258/140 123/254/131
f 123/337/131 132/331/140 134/334/135 125/338/128
f 125/278/128 134/281/135 128/282/134 119/277/125
f 135/280/141 136/283/142 142/284/143 141/279/144
f 136/149/142 135/145/141 137/146/145 138/150/146
f 138/251/146 137/247/145 139/248/147 140/252/148
f 140/113/148 139/111/147 141/112/144 142/114/143
f 127/324/133 136/327/142 138/328/146 129/325/137
f 129/255/137 138/251/146 140/252/148 131/256/139
f 131/332/139 140/335/148 142/336/143 133/333/136
f 133/286/136 142/284/143 136/283/142 127/285/133
f 143/272/149 144/275/150 150/276/151 149/271/152
f 144/139/150 143/140/149 145/141/153 146/142/154
f 146/243/154 145/239/153 147/240/155 148/244/156
f 148/107/156 147/101/155 149/102/152 150/108/151
f 143/140/149 82/143/85 84/144/88 145/141/153
f 145/239/153 84/231/88 87/235/91 147/240/155
f 147/101/155 87/98/91 90/97/100 149/102/152
f 149/271/152 90/267/100 82/268/85 143/272/149
f 135/145/141 144/139/150 146/142/154 137/146/145
f 137/247/145 146/243/154 148/244/156 139/248/147
f 139/111/147 148/107/156 150/108/151 141/112/144
f 141/279/144 150/276/151 144/275/150 135/280/141
f 154/233/89 156/236/81 83/237/84 85/238/92 86/234/90
f 153/339/86 152/340/82 156/341/81 155/342/87
f 151/263/99 152/262/82 153/266/86
f 154/233/89 155/232/87 156/236/81
