# This file uses centimeters as units for non-parametric coordinates.

mtllib wheel_low.mtl
g default
v -0.278309 1.047446 -0.253845
v -0.278309 0.845606 -0.455685
v -0.278309 0.569888 -0.529564
v -0.278309 0.294169 -0.455685
v -0.278309 0.092330 -0.253845
v -0.278309 0.018451 0.021874
v -0.278309 0.092330 0.297592
v -0.278309 0.294169 0.499432
v -0.278309 0.569888 0.573310
v -0.278309 0.845606 0.499432
v -0.278309 1.047446 0.297592
v -0.278309 1.121325 0.021874
v -0.278309 0.569888 0.021874
v 0.079625 0.948750 -0.196863
v 0.079625 0.788624 -0.356989
v 0.079625 0.569888 -0.415600
v 0.079625 0.351151 -0.356989
v 0.079625 0.191025 -0.196863
v 0.079625 0.132415 0.021874
v 0.079625 0.191025 0.240610
v 0.079625 0.351151 0.400736
v 0.079625 0.569888 0.459346
v 0.079625 0.788624 0.400736
v 0.079625 0.948750 0.240610
v 0.079625 1.007360 0.021874
v 0.002576 1.047446 -0.253845
v 0.041101 1.038191 -0.248502
v 0.069302 1.012906 -0.233903
v 0.079625 0.978366 -0.213962
v 0.002576 0.845606 -0.455685
v 0.041101 0.840263 -0.446430
v 0.069302 0.825665 -0.421145
v 0.079625 0.805723 -0.386605
v 0.002576 0.569888 -0.529564
v 0.041101 0.569888 -0.518877
v 0.069302 0.569888 -0.489680
v 0.079625 0.569888 -0.449797
v 0.002576 0.294169 -0.455685
v 0.041101 0.299513 -0.446430
v 0.069302 0.314111 -0.421145
v 0.079625 0.334053 -0.386605
v 0.002576 0.092330 -0.253845
v 0.041101 0.101585 -0.248502
v 0.069302 0.126870 -0.233903
v 0.079625 0.161410 -0.213962
v 0.002576 0.018451 0.021874
v 0.041101 0.029138 0.021874
v 0.069302 0.058334 0.021874
v 0.079625 0.098218 0.021874
v 0.002576 0.092330 0.297592
v 0.041101 0.101585 0.292249
v 0.069302 0.126870 0.277650
v 0.079625 0.161410 0.257709
v 0.002576 0.294169 0.499432
v 0.041101 0.299513 0.490177
v 0.069302 0.314111 0.464892
v 0.079625 0.334053 0.430352
v 0.002576 0.569888 0.573310
v 0.041101 0.569888 0.562624
v 0.069302 0.569888 0.533427
v 0.079625 0.569888 0.493544
v 0.002576 0.845606 0.499432
v 0.041101 0.840263 0.490177
v 0.069302 0.825665 0.464892
v 0.079625 0.805723 0.430352
v 0.002576 1.047446 0.297592
v 0.041101 1.038191 0.292249
v 0.069302 1.012906 0.277650
v 0.079625 0.978366 0.257709
v 0.002576 1.121325 0.021874
v 0.041101 1.110638 0.021874
v 0.069302 1.081441 0.021874
v 0.079625 1.041558 0.021874
v 0.079625 0.569888 0.021873
v 0.034587 0.863687 -0.147752
v 0.034587 0.739513 -0.271925
v 0.034587 0.729033 -0.070009
v 0.034587 0.661770 -0.137272
v 0.034587 0.569888 -0.317377
v 0.034587 0.569888 -0.161892
v 0.034587 0.400263 -0.271925
v 0.034587 0.478005 -0.137272
v 0.034587 0.276089 -0.147752
v 0.034587 0.410743 -0.070009
v 0.034587 0.230638 0.021873
v 0.034587 0.386123 0.021873
v 0.034587 0.276089 0.191498
v 0.034587 0.410743 0.113756
v 0.034587 0.400263 0.315672
v 0.034587 0.478005 0.181019
v 0.034587 0.569888 0.361123
v 0.034587 0.569888 0.205638
v 0.034587 0.739513 0.315672
v 0.034587 0.661770 0.181019
v 0.034587 0.863687 0.191498
v 0.034587 0.729033 0.113756
v 0.034587 0.909137 0.021873
v 0.034587 0.753653 0.021873
v 0.079625 0.883875 -0.159407
v 0.073030 0.869600 -0.151165
v 0.057108 0.863687 -0.147752
v 0.079625 0.751168 -0.292113
v 0.073030 0.742926 -0.277838
v 0.057108 0.739513 -0.271925
v 0.079625 0.569888 -0.340688
v 0.073030 0.569888 -0.324204
v 0.057108 0.569888 -0.317377
v 0.079625 0.388607 -0.292113
v 0.073030 0.396849 -0.277838
v 0.057108 0.400263 -0.271925
v 0.079625 0.255901 -0.159407
v 0.073030 0.270176 -0.151165
v 0.057108 0.276089 -0.147752
v 0.079625 0.207327 0.021873
v 0.073030 0.223810 0.021873
v 0.057108 0.230638 0.021873
v 0.079625 0.255901 0.203154
v 0.073030 0.270176 0.194912
v 0.057108 0.276089 0.191498
v 0.079625 0.388607 0.335861
v 0.073030 0.396849 0.321585
v 0.057108 0.400263 0.315672
v 0.079625 0.569888 0.384435
v 0.073030 0.569888 0.367951
v 0.057108 0.569888 0.361123
v 0.079625 0.751168 0.335861
v 0.073030 0.742926 0.321585
v 0.057108 0.739513 0.315672
v 0.079625 0.883875 0.203154
v 0.073030 0.869600 0.194912
v 0.057108 0.863687 0.191498
v 0.079625 0.932449 0.021873
v 0.073030 0.915965 0.021873
v 0.057108 0.909137 0.021873
v 0.079625 0.708845 -0.058354
v 0.073030 0.723120 -0.066595
v 0.057108 0.729033 -0.070009
v 0.079625 0.650115 -0.117084
v 0.073030 0.658356 -0.131359
v 0.057108 0.661770 -0.137272
v 0.079625 0.569888 -0.138581
v 0.073030 0.569888 -0.155064
v 0.057108 0.569888 -0.161892
v 0.079625 0.489661 -0.117084
v 0.073030 0.481419 -0.131359
v 0.057108 0.478005 -0.137272
v 0.079625 0.430931 -0.058354
v 0.073030 0.416656 -0.066595
v 0.057108 0.410743 -0.070009
v 0.079625 0.409434 0.021873
v 0.073030 0.392950 0.021873
v 0.057108 0.386123 0.021873
v 0.079625 0.430931 0.102100
v 0.073030 0.416656 0.110342
v 0.057108 0.410743 0.113756
v 0.079625 0.489661 0.160830
v 0.073030 0.481419 0.175106
v 0.057108 0.478005 0.181019
v 0.079625 0.569888 0.182327
v 0.073030 0.569888 0.198811
v 0.057108 0.569888 0.205638
v 0.079625 0.650115 0.160830
v 0.073030 0.658356 0.175106
v 0.057108 0.661770 0.181019
v 0.079625 0.708845 0.102100
v 0.073030 0.723120 0.110342
v 0.057108 0.729033 0.113756
v 0.079625 0.730341 0.021873
v 0.073030 0.746825 0.021873
v 0.057108 0.753653 0.021873
vt 0.830612 0.280775
vt 0.802066 0.309321
vt 0.763072 0.241781
vt 0.763072 0.319770
vt 0.841061 0.241781
vt 0.724077 0.309321
vt 0.830612 0.202786
vt 0.695531 0.280775
vt 0.802066 0.174240
vt 0.685083 0.241781
vt 0.763072 0.163792
vt 0.695531 0.202786
vt 0.724077 0.174240
vt 0.854215 0.061317
vt 0.931846 0.138948
vt 0.918529 0.146636
vt 0.846527 0.074634
vt 0.947377 0.129981
vt 0.863182 0.045786
vt 0.960261 0.244993
vt 0.944884 0.244993
vt 0.889357 0.163478
vt 0.829684 0.103806
vt 0.748170 0.032902
vt 0.748170 0.048279
vt 0.978195 0.244993
vt 0.748170 0.014968
vt 0.958747 0.123416
vt 0.869747 0.034416
vt 0.931846 0.351038
vt 0.918529 0.343350
vt 0.911199 0.244993
vt 0.882938 0.167184
vt 0.825978 0.110225
vt 0.748170 0.081964
vt 0.642125 0.061317
vt 0.649813 0.074634
vt 0.991323 0.244993
vt 0.947377 0.360005
vt 0.633158 0.045786
vt 0.748170 0.001840
vt 0.854215 0.428669
vt 0.846527 0.415352
vt 0.889357 0.326507
vt 0.903787 0.244993
vt 0.748170 0.089376
vt 0.666656 0.103806
vt 0.564494 0.138948
vt 0.577811 0.146636
vt 0.958747 0.366570
vt 0.863182 0.444200
vt 0.548963 0.129981
vt 0.626593 0.034416
vt 0.748170 0.457084
vt 0.748170 0.441707
vt 0.829684 0.386180
vt 0.882938 0.322801
vt 0.670362 0.110225
vt 0.606983 0.163478
vt 0.536079 0.244993
vt 0.551456 0.244993
vt 0.869747 0.455570
vt 0.748170 0.475018
vt 0.518145 0.244993
vt 0.537593 0.123416
vt 0.642125 0.428669
vt 0.649813 0.415352
vt 0.748170 0.408022
vt 0.825978 0.379761
vt 0.613402 0.167184
vt 0.585141 0.244993
vt 0.564494 0.351038
vt 0.577811 0.343350
vt 0.748170 0.488146
vt 0.633158 0.444200
vt 0.548963 0.360005
vt 0.505017 0.244993
vt 0.666656 0.386180
vt 0.748170 0.400610
vt 0.592553 0.244993
vt 0.606983 0.326507
vt 0.626593 0.455570
vt 0.537593 0.366570
vt 0.670362 0.379761
vt 0.613402 0.322801
vt 0.622213 0.522186
vt 0.678049 0.578022
vt 0.617501 0.612980
vt 0.587256 0.582734
vt 0.698487 0.654296
vt 0.628572 0.654296
vt 0.545940 0.501749
vt 0.545940 0.571664
vt 0.678049 0.730569
vt 0.617501 0.695611
vt 0.469667 0.522186
vt 0.504624 0.582734
vt 0.622213 0.786405
vt 0.587256 0.725857
vt 0.413831 0.578022
vt 0.474379 0.612980
vt 0.545940 0.806842
vt 0.545940 0.736927
vt 0.393393 0.654296
vt 0.463308 0.654296
vt 0.469667 0.786405
vt 0.504624 0.725857
vt 0.413831 0.730569
vt 0.474379 0.695611
vt 0.117628 0.770777
vt 0.144037 0.797186
vt 0.081554 0.833260
vt 0.150456 0.793480
vt 0.121334 0.764358
vt 0.153703 0.833260
vt 0.081554 0.761111
vt 0.161115 0.833260
vt 0.081554 0.753699
vt 0.144037 0.869335
vt 0.045479 0.770777
vt 0.150456 0.873041
vt 0.041773 0.764358
vt 0.117628 0.895744
vt 0.019070 0.797186
vt 0.121334 0.902163
vt 0.012651 0.793480
vt 0.081554 0.905410
vt 0.009404 0.833260
vt 0.081554 0.912822
vt 0.001992 0.833260
vt 0.045479 0.895744
vt 0.019070 0.869335
vt 0.041773 0.902163
vt 0.012651 0.873041
vt 0.134589 0.066490
vt 0.134589 0.129322
vt 0.070580 0.129322
vt 0.070580 0.066490
vt 0.143369 0.067708
vt 0.143369 0.129322
vt 0.134589 0.192154
vt 0.070580 0.192154
vt 0.134589 0.020494
vt 0.070580 0.020494
vt 0.143369 0.022604
vt 0.143369 0.190936
vt 0.134589 0.238150
vt 0.070580 0.238150
vt 0.143369 0.236041
vt 0.134590 0.409809
vt 0.134591 0.472641
vt 0.070582 0.472642
vt 0.070581 0.409810
vt 0.143369 0.411027
vt 0.143370 0.472641
vt 0.134592 0.535473
vt 0.070583 0.535474
vt 0.134589 0.363813
vt 0.070580 0.363814
vt 0.143368 0.365922
vt 0.143371 0.534255
vt 0.134592 0.581468
vt 0.070583 0.581470
vt 0.143371 0.579359
vt 0.356677 0.636517
vt 0.356677 0.712790
vt 0.346550 0.712790
vt 0.346550 0.636517
vt 0.363836 0.714325
vt 0.363836 0.636517
vt 0.356677 0.768626
vt 0.346550 0.768626
vt 0.356677 0.560243
vt 0.346550 0.560243
vt 0.363836 0.771285
vt 0.363836 0.558708
vt 0.356677 0.504407
vt 0.346550 0.504407
vt 0.363836 0.501749
vt 0.253984 0.783944
vt 0.253984 0.825260
vt 0.243857 0.825260
vt 0.243857 0.783944
vt 0.261143 0.785479
vt 0.261143 0.825260
vt 0.253984 0.866576
vt 0.243857 0.866576
vt 0.253984 0.753699
vt 0.243857 0.753699
vt 0.261143 0.756357
vt 0.261143 0.865041
vt 0.253984 0.896821
vt 0.243857 0.896821
vt 0.261143 0.894162
vt 0.380098 0.636517
vt 0.380098 0.712790
vt 0.369971 0.712790
vt 0.369971 0.636517
vt 0.387258 0.714325
vt 0.387258 0.636517
vt 0.380098 0.768626
vt 0.369971 0.768626
vt 0.380098 0.560243
vt 0.369971 0.560243
vt 0.387258 0.771285
vt 0.387258 0.558708
vt 0.380098 0.504407
vt 0.369971 0.504407
vt 0.387258 0.501749
vt 0.228648 0.783944
vt 0.228648 0.825260
vt 0.218521 0.825260
vt 0.218521 0.783944
vt 0.235807 0.785479
vt 0.235807 0.825260
vt 0.228648 0.866576
vt 0.218521 0.866576
vt 0.228648 0.753699
vt 0.218521 0.753699
vt 0.235807 0.756358
vt 0.235807 0.865041
vt 0.228648 0.896821
vt 0.218521 0.896821
vt 0.235807 0.894162
vt 0.134593 0.644300
vt 0.070584 0.644301
vt 0.143371 0.582686
vt 0.143373 0.644300
vt 0.134595 0.707132
vt 0.070585 0.707133
vt 0.143374 0.705914
vt 0.134589 0.300982
vt 0.070580 0.300982
vt 0.143369 0.239368
vt 0.143368 0.300982
vt 0.143368 0.362596
vt 0.177975 0.831507
vt 0.177975 0.907781
vt 0.167848 0.907781
vt 0.167848 0.831507
vt 0.185134 0.909316
vt 0.185134 0.831507
vt 0.177975 0.755234
vt 0.167848 0.755234
vt 0.185134 0.753699
vt 0.279320 0.753699
vt 0.279320 0.795015
vt 0.269193 0.795015
vt 0.269193 0.753699
vt 0.286480 0.755234
vt 0.286480 0.795015
vt 0.279320 0.836330
vt 0.269193 0.836330
vt 0.286480 0.834795
vt 0.203311 0.831507
vt 0.203311 0.907781
vt 0.193184 0.907781
vt 0.193184 0.831507
vt 0.210471 0.909316
vt 0.210471 0.831507
vt 0.203311 0.755234
vt 0.193184 0.755234
vt 0.210471 0.753699
vt 0.304657 0.753699
vt 0.304657 0.795015
vt 0.294530 0.795015
vt 0.294530 0.753699
vt 0.311816 0.755234
vt 0.311816 0.795015
vt 0.304657 0.836330
vt 0.294530 0.836330
vt 0.311816 0.834795
vn -1.000000 0.000000 0.000000
vn -1.000000 0.000000 0.000000
vn -1.000000 0.000000 0.000000
vn -1.000000 0.000000 0.000000
vn -1.000000 0.000000 0.000000
vn -1.000000 0.000000 0.000000
vn -1.000000 0.000000 0.000000
vn -1.000000 0.000000 0.000000
vn -1.000000 0.000000 0.000000
vn -1.000000 0.000000 0.000000
vn -1.000000 0.000000 0.000000
vn -1.000000 0.000000 0.000000
vn -1.000000 0.000000 0.000000
vn 0.031862 0.865586 -0.499746
vn 0.031862 0.499747 -0.865585
vn 0.031862 0.000000 -0.999492
vn 0.031862 -0.499747 -0.865585
vn 0.031862 -0.865586 -0.499746
vn 0.031862 -0.999492 0.000000
vn 0.031862 -0.865586 0.499746
vn 0.031862 -0.499746 0.865586
vn 0.031862 -0.000000 0.999492
vn 0.031862 0.499747 0.865586
vn 0.031862 0.865586 0.499745
vn 0.031862 0.999492 -0.000000
vn 0.986665 0.081380 -0.140957
vn 0.986666 0.140955 -0.081381
vn 1.000000 0.000000 0.000000
vn 1.000000 0.000000 0.000000
vn 0.986665 -0.000000 -0.162763
vn 1.000000 0.000000 0.000000
vn 0.986665 -0.081381 -0.140957
vn 1.000000 0.000000 0.000000
vn 0.986665 -0.140956 -0.081381
vn 1.000000 0.000000 0.000000
vn 0.986665 -0.162762 0.000000
vn 1.000000 0.000000 0.000000
vn 0.986666 -0.140954 0.081381
vn 1.000000 -0.000000 0.000000
vn 0.986665 -0.081380 0.140957
vn 1.000000 -0.000000 0.000000
vn 0.986665 -0.000001 0.162763
vn 1.000000 0.000000 0.000000
vn 0.986666 0.081378 0.140957
vn 1.000000 0.000000 0.000000
vn 0.986666 0.140954 0.081381
vn 1.000000 0.000000 0.000000
vn 0.986665 0.162762 0.000000
vn 1.000000 0.000000 0.000000
vn 0.849817 0.456463 -0.263539
vn 0.849817 0.263539 -0.456463
vn 0.488686 0.755573 -0.436230
vn 0.488685 0.436232 -0.755572
vn 0.849816 0.000000 -0.527079
vn 0.488686 0.000001 -0.872460
vn 0.849817 -0.263538 -0.456463
vn 0.488686 -0.436229 -0.755572
vn 0.849817 -0.456462 -0.263540
vn 0.488686 -0.755572 -0.436231
vn 0.849817 -0.527077 0.000000
vn 0.488686 -0.872460 0.000000
vn 0.849817 -0.456463 0.263539
vn 0.488684 -0.755574 0.436229
vn 0.849816 -0.263541 0.456463
vn 0.488685 -0.436232 0.755572
vn 0.849817 0.000000 0.527078
vn 0.488685 -0.000000 0.872460
vn 0.849817 0.263541 0.456463
vn 0.488685 0.436232 0.755572
vn 0.849817 0.456463 0.263539
vn 0.488684 0.755574 0.436229
vn 0.849817 0.527078 -0.000000
vn 0.488686 0.872460 -0.000000
vn 0.975507 -0.109985 0.190497
vn 0.975507 -0.190500 0.109983
vn 1.000000 0.000000 0.000000
vn 1.000000 0.000000 0.000000
vn 0.975507 0.000001 0.219967
vn 1.000000 0.000000 0.000000
vn 0.975507 0.109985 0.190497
vn 1.000000 0.000000 0.000000
vn 0.975507 0.190498 0.109983
vn 1.000000 0.000000 0.000000
vn 0.975507 0.219968 0.000000
vn 1.000000 0.000000 0.000000
vn 0.975507 0.190497 -0.109983
vn 1.000000 -0.000000 0.000000
vn 0.975507 0.109983 -0.190497
vn 1.000000 -0.000000 0.000000
vn 0.975507 -0.000001 -0.219967
vn 1.000000 0.000000 0.000000
vn 0.975507 -0.109983 -0.190497
vn 1.000000 0.000000 0.000000
vn 0.975507 -0.190497 -0.109983
vn 1.000000 0.000000 0.000000
vn 0.975507 -0.219969 0.000000
vn 1.000000 0.000000 0.000000
vn 0.995780 0.045884 -0.079474
vn 0.995780 0.079474 -0.045884
vn 1.000000 0.000000 0.000000
vn 0.995780 -0.000001 -0.091769
vn 0.995780 -0.045886 -0.079474
vn 0.995780 -0.079473 -0.045884
vn 0.995781 -0.091765 -0.000000
vn 0.995780 -0.079473 0.045884
vn 0.995780 -0.045885 0.079474
vn 0.995780 0.000000 0.091769
vn 0.995780 0.045885 0.079474
vn 0.995780 0.079475 0.045885
vn 0.995780 0.091769 0.000000
vn 0.998776 -0.042833 0.024730
vn 0.998776 -0.024730 0.042833
vn 0.998776 0.000000 0.049459
vn 0.998776 0.024730 0.042833
vn 0.998776 0.042833 0.024730
vn 0.998776 0.049457 0.000000
vn 0.998776 0.042830 -0.024730
vn 0.998776 0.024728 -0.042833
vn 0.998776 0.000000 -0.049459
vn 0.998776 -0.024729 -0.042833
vn 0.998776 -0.042830 -0.024730
vn 0.998776 -0.049457 0.000000
vn 0.182149 -0.491635 0.851538
vn 0.182149 -0.851538 0.491635
vn 0.166374 0.853956 -0.493031
vn 0.166375 0.493031 -0.853955
vn 0.182148 0.000000 0.983271
vn 0.166375 -0.000000 -0.986063
vn 0.182148 0.491635 0.851538
vn 0.166376 -0.493031 -0.853956
vn 0.182149 0.851538 0.491635
vn 0.166375 -0.853955 -0.493031
vn 0.182148 0.983271 0.000000
vn 0.166375 -0.986063 0.000000
vn 0.182149 0.851538 -0.491635
vn 0.166375 -0.853954 0.493033
vn 0.182150 0.491633 -0.851539
vn 0.166375 -0.493030 0.853956
vn 0.182150 -0.000000 -0.983271
vn 0.166375 -0.000000 0.986063
vn 0.182150 -0.491634 -0.851538
vn 0.166375 0.493032 0.853955
vn 0.182149 -0.851538 -0.491635
vn 0.166375 0.853955 0.493032
vn 0.182148 -0.983271 -0.000000
vn 0.166374 0.986063 -0.000000
vn 0.753212 -0.569652 0.328891
vn 0.753210 -0.328889 0.569655
vn 0.753211 0.000000 0.657779
vn 0.753210 0.328891 0.569654
vn 0.753211 0.569653 0.328890
vn 0.753212 0.657778 0.000000
vn 0.753210 0.569655 -0.328890
vn 0.753210 0.328893 -0.569653
vn 0.753211 -0.000000 -0.657779
vn 0.753209 -0.328894 -0.569653
vn 0.753210 -0.569655 -0.328889
vn 0.753211 -0.657779 0.000000
vn 0.675409 0.638643 -0.368723
vn 0.675408 0.737444 0.000000
vn 0.675409 0.368721 -0.638645
vn 0.675408 -0.000001 -0.737444
vn 0.675408 -0.368724 -0.638644
vn 0.675412 -0.638641 -0.368723
vn 0.675414 -0.737439 0.000000
vn 0.675412 -0.638640 0.368724
vn 0.675409 -0.368718 0.638646
vn 0.675409 0.000000 0.737443
vn 0.675409 0.368721 0.638645
vn 0.675409 0.638644 0.368723
s 1
g Truck_wheel_backright2
usemtl initialShadingGroup
f 1/1/1 2/2/2 13/3/3
f 2/2/2 3/4/4 13/3/3
f 3/4/4 4/6/5 13/3/3
f 4/6/5 5/8/6 13/3/3
f 5/8/6 6/10/7 13/3/3
f 6/10/7 7/12/8 13/3/3
f 7/12/8 8/13/9 13/3/3
f 8/13/9 9/11/10 13/3/3
f 9/11/10 10/9/11 13/3/3
f 10/9/11 11/7/12 13/3/3
f 11/7/12 12/5/13 13/3/3
f 12/5/13 1/1/1 13/3/3
f 26/156/14 30/162/15 2/163/2 1/157/1
f 30/162/15 34/225/16 3/226/4 2/163/2
f 34/225/16 38/229/17 4/230/5 3/226/4
f 38/143/17 42/135/18 5/138/6 4/144/5
f 42/135/18 46/136/19 6/137/7 5/138/6
f 46/136/19 50/141/20 7/142/8 6/137/7
f 50/141/20 54/147/21 8/148/9 7/142/8
f 54/147/21 58/232/22 9/233/10 8/148/9
f 58/232/22 62/158/23 10/159/11 9/233/10
f 62/158/23 66/150/24 11/153/12 10/159/11
f 66/150/24 70/151/25 12/152/13 11/153/12
f 70/151/25 26/156/14 1/157/1 12/152/13
f 33/14/26 29/15/27 14/16/28 15/17/29
f 37/24/30 33/14/26 15/17/29 16/25/31
f 41/36/32 37/24/30 16/25/31 17/37/33
f 45/48/34 41/36/32 17/37/33 18/49/35
f 49/60/36 45/48/34 18/49/35 19/61/37
f 53/72/38 49/60/36 19/61/37 20/73/39
f 57/66/40 53/72/38 20/73/39 21/67/41
f 61/54/42 57/66/40 21/67/41 22/55/43
f 65/42/44 61/54/42 22/55/43 23/43/45
f 69/30/46 65/42/44 23/43/45 24/31/47
f 73/20/48 69/30/46 24/31/47 25/21/49
f 29/15/27 73/20/48 25/21/49 14/16/28
f 28/18/50 29/15/27 33/14/26 32/19/51
f 26/156/14 27/161/52 31/164/53 30/162/15
f 27/28/52 28/18/50 32/19/51 31/29/53
f 32/19/51 33/14/26 37/24/30 36/27/54
f 30/162/15 31/227/53 35/228/55 34/225/16
f 31/29/53 32/19/51 36/27/54 35/41/55
f 36/27/54 37/24/30 41/36/32 40/40/56
f 34/225/16 35/228/55 39/231/57 38/229/17
f 35/41/55 36/27/54 40/40/56 39/53/57
f 40/40/56 41/36/32 45/48/34 44/52/58
f 38/143/17 39/145/57 43/139/59 42/135/18
f 39/53/57 40/40/56 44/52/58 43/65/59
f 44/52/58 45/48/34 49/60/36 48/64/60
f 42/135/18 43/139/59 47/140/61 46/136/19
f 43/65/59 44/52/58 48/64/60 47/77/61
f 48/64/60 49/60/36 53/72/38 52/76/62
f 46/136/19 47/140/61 51/146/63 50/141/20
f 47/77/61 48/64/60 52/76/62 51/83/63
f 52/76/62 53/72/38 57/66/40 56/75/64
f 50/141/20 51/146/63 55/149/65 54/147/21
f 51/83/63 52/76/62 56/75/64 55/82/65
f 56/75/64 57/66/40 61/54/42 60/63/66
f 54/147/21 55/234/65 59/235/67 58/232/22
f 55/82/65 56/75/64 60/63/66 59/74/67
f 60/63/66 61/54/42 65/42/44 64/51/68
f 58/232/22 59/235/67 63/236/69 62/158/23
f 59/74/67 60/63/66 64/51/68 63/62/69
f 64/51/68 65/42/44 69/30/46 68/39/70
f 62/158/23 63/160/69 67/154/71 66/150/24
f 63/62/69 64/51/68 68/39/70 67/50/71
f 68/39/70 69/30/46 73/20/48 72/26/72
f 66/150/24 67/154/71 71/155/73 70/151/25
f 67/50/71 68/39/70 72/26/72 71/38/73
f 29/15/27 28/18/50 72/26/72 73/20/48
f 28/18/50 27/28/52 71/38/73 72/26/72
f 27/161/52 26/156/14 70/151/25 71/155/73
f 76/86/74 75/87/75 77/88/76 78/89/77
f 79/92/78 76/86/74 78/89/77 80/93/79
f 81/96/80 79/92/78 80/93/79 82/97/81
f 83/100/82 81/96/80 82/97/81 84/101/83
f 85/104/84 83/100/82 84/101/83 86/105/85
f 87/108/86 85/104/84 86/105/85 88/109/87
f 89/106/88 87/108/86 88/109/87 90/107/89
f 91/102/90 89/106/88 90/107/89 92/103/91
f 93/98/92 91/102/90 92/103/91 94/99/93
f 95/94/94 93/98/92 94/99/93 96/95/95
f 97/90/96 95/94/94 96/95/95 98/91/97
f 75/87/75 97/90/96 98/91/97 77/88/76
f 138/110/98 135/111/99 74/112/100
f 141/116/101 138/110/98 74/112/100
f 144/120/102 141/116/101 74/112/100
f 147/124/103 144/120/102 74/112/100
f 150/128/104 147/124/103 74/112/100
f 153/132/105 150/128/104 74/112/100
f 156/131/106 153/132/105 74/112/100
f 159/127/107 156/131/106 74/112/100
f 162/123/108 159/127/107 74/112/100
f 165/119/109 162/123/108 74/112/100
f 168/115/110 165/119/109 74/112/100
f 135/111/99 168/115/110 74/112/100
f 15/17/29 14/16/28 99/22/111 102/23/112
f 16/25/31 15/17/29 102/23/112 105/35/113
f 17/37/33 16/25/31 105/35/113 108/47/114
f 18/49/35 17/37/33 108/47/114 111/59/115
f 19/61/37 18/49/35 111/59/115 114/71/116
f 20/73/39 19/61/37 114/71/116 117/81/117
f 21/67/41 20/73/39 117/81/117 120/78/118
f 22/55/43 21/67/41 120/78/118 123/68/119
f 23/43/45 22/55/43 123/68/119 126/56/120
f 24/31/47 23/43/45 126/56/120 129/44/121
f 25/21/49 24/31/47 129/44/121 132/32/122
f 14/16/28 25/21/49 132/32/122 99/22/111
f 104/207/123 101/203/124 75/204/75 76/208/74
f 137/216/125 140/222/126 78/223/77 77/217/76
f 107/237/127 104/238/123 76/239/74 79/240/78
f 140/246/126 143/247/128 80/248/79 78/249/77
f 110/243/129 107/237/127 79/240/78 81/244/80
f 143/247/128 146/252/130 82/253/81 80/248/79
f 113/166/131 110/171/129 81/172/80 83/167/82
f 146/188/130 149/180/132 84/183/83 82/189/81
f 116/165/133 113/166/131 83/167/82 85/168/84
f 149/180/132 152/181/134 86/182/85 84/183/83
f 119/173/135 116/165/133 85/168/84 87/174/86
f 152/181/134 155/186/136 88/187/87 86/182/85
f 122/177/137 119/173/135 87/174/86 89/178/88
f 155/186/136 158/192/138 90/193/89 88/187/87
f 125/255/139 122/256/137 89/257/88 91/258/90
f 158/264/138 161/265/140 92/266/91 90/267/89
f 128/261/141 125/255/139 91/258/90 93/262/92
f 161/265/140 164/270/142 94/271/93 92/266/91
f 131/196/143 128/201/141 93/202/92 95/197/94
f 164/218/142 167/210/144 96/213/95 94/219/93
f 134/195/145 131/196/143 95/197/94 97/198/96
f 167/210/144 170/211/146 98/212/97 96/213/95
f 101/203/124 134/195/145 97/198/96 75/204/75
f 170/211/146 137/216/125 77/217/76 98/212/97
f 99/22/111 100/33/147 103/34/148 102/23/112
f 100/206/147 101/203/124 104/207/123 103/209/148
f 102/23/112 103/34/148 106/46/149 105/35/113
f 103/241/148 104/238/123 107/237/127 106/242/149
f 105/35/113 106/46/149 109/58/150 108/47/114
f 106/242/149 107/237/127 110/243/129 109/245/150
f 108/47/114 109/58/150 112/70/151 111/59/115
f 109/175/150 110/171/129 113/166/131 112/169/151
f 111/59/115 112/70/151 115/80/152 114/71/116
f 112/169/151 113/166/131 116/165/133 115/170/152
f 114/71/116 115/80/152 118/85/153 117/81/117
f 115/170/152 116/165/133 119/173/135 118/176/153
f 117/81/117 118/85/153 121/84/154 120/78/118
f 118/176/153 119/173/135 122/177/137 121/179/154
f 120/78/118 121/84/154 124/79/155 123/68/119
f 121/259/154 122/256/137 125/255/139 124/260/155
f 123/68/119 124/79/155 127/69/156 126/56/120
f 124/260/155 125/255/139 128/261/141 127/263/156
f 126/56/120 127/69/156 130/57/157 129/44/121
f 127/205/156 128/201/141 131/196/143 130/199/157
f 129/44/121 130/57/157 133/45/158 132/32/122
f 130/199/157 131/196/143 134/195/145 133/200/158
f 101/203/124 100/206/147 133/200/158 134/195/145
f 100/33/147 99/22/111 132/32/122 133/45/158
f 135/111/99 136/113/159 169/117/160 168/115/110
f 136/221/159 137/216/125 170/211/146 169/215/160
f 137/216/125 136/221/159 139/224/161 140/222/126
f 136/113/159 135/111/99 138/110/98 139/114/161
f 140/246/126 139/250/161 142/251/162 143/247/128
f 139/114/161 138/110/98 141/116/101 142/118/162
f 143/247/128 142/251/162 145/254/163 146/252/130
f 142/118/162 141/116/101 144/120/102 145/122/163
f 146/188/130 145/190/163 148/184/164 149/180/132
f 145/122/163 144/120/102 147/124/103 148/126/164
f 149/180/132 148/184/164 151/185/165 152/181/134
f 148/126/164 147/124/103 150/128/104 151/130/165
f 152/181/134 151/185/165 154/191/166 155/186/136
f 151/130/165 150/128/104 153/132/105 154/134/166
f 155/186/136 154/191/166 157/194/167 158/192/138
f 154/134/166 153/132/105 156/131/106 157/133/167
f 158/264/138 157/268/167 160/269/168 161/265/140
f 157/133/167 156/131/106 159/127/107 160/129/168
f 161/265/140 160/269/168 163/272/169 164/270/142
f 160/129/168 159/127/107 162/123/108 163/125/169
f 164/218/142 163/220/169 166/214/170 167/210/144
f 163/125/169 162/123/108 165/119/109 166/121/170
f 167/210/144 166/214/170 169/215/160 170/211/146
f 166/121/170 165/119/109 168/115/110 169/117/160
